<?xml version="1.0" encoding="utf-8"?>
<!-- Generator: Adobe Illustrator 16.0.3, SVG Export Plug-In . SVG Version: 6.00 Build 0)  -->
<!DOCTYPE svg PUBLIC "-//W3C//DTD SVG 1.1//EN" "http://www.w3.org/Graphics/SVG/1.1/DTD/svg11.dtd">
<svg version="1.1" xmlns="http://www.w3.org/2000/svg" xmlns:xlink="http://www.w3.org/1999/xlink" x="0px" y="0px" width="1080px"
	 height="1368px" viewBox="0 0 1080 1368" enable-background="new 0 0 1080 1368" xml:space="preserve">
<g id="BG">
	<rect x="0.5" fill="#679E87" width="1079.2" height="1368"/>
</g>
<g id="Vägar">
	<polygon fill="#F1E5CC" points="629,385.8 733.7,467 874,602.2 900.6,629.6 915,869.2 871.8,1024.6 976.1,1069.9 1079.7,1113.1 
		1079.7,1127.5 864.6,1045.4 817.1,1203.7 816.4,1212.4 800.6,1212.4 847.3,1034.7 575.4,1028.2 546.6,1026 392.6,1010.9 
		395.5,1002.3 545.9,1016.7 672.5,1021.7 761.7,1021 853.8,1024.6 897.7,868.5 883.3,633.2 857.4,607.3 722.9,477.8 630.8,408.7 	
		"/>
	<polygon fill="#F1E5CC" points="406.3,926.7 392.6,1010.9 287.7,1262.3 253,1368 263.7,1368 298.3,1262.3 375.3,1090.8 
		448.7,1112.4 565.3,1136.8 664.6,1192.2 720.7,1212.4 728.6,1212.4 715.7,1143.3 904.9,1139 903.3,1263.7 916.7,1368 924,1368 
		912,1263 916.8,1065.4 908.5,1062 904.9,1127.5 716.4,1133.9 679,1030.6 672.5,1031.8 679.7,1062.7 650.2,1073.5 652.4,1080 
		681.9,1069.6 704.2,1133.2 704.2,1144 715.7,1195.8 668.9,1182.9 570.3,1126.8 555.3,1026.7 546.6,1026 559.5,1123.2 445.9,1097.3 
		447.3,1069.6 452.4,1016.8 438.8,1015.4 435.8,1069.6 433.6,1092.9 377.5,1080.7 401.2,1011.8 414.1,929.2 	"/>
	<polygon fill="#F1E5CC" points="545.9,1016.7 540.1,968.2 535.8,903.7 624.4,887.2 625.8,898 544.4,911.6 547.3,957.1 
		553.8,1016.7 	"/>
	<polygon fill="#F1E5CC" points="653.1,973.5 672.5,1021.7 659.5,1021.7 644.4,973.5 	"/>
	<polygon fill="#F1E5CC" points="641.9,926.7 729.3,907.3 748.8,1021.1 761.7,1021 736.2,907.3 788.3,900.8 791.2,1022.1 
		801.3,1022.5 795.5,887.2 801.3,816.6 894.9,823 894.3,813 802.7,808 817.1,705.8 832.2,647.6 857.4,607.3 849,599.2 824.3,638.9 
		821.4,650.4 810.7,691.9 765.1,684.3 755.1,670.4 749.5,674.2 760,688.1 713.9,756.7 709.3,764.8 699.8,760.2 704.7,744.8 
		712.8,699.1 710.1,699.9 700.1,748.6 696.1,758 585.2,705.9 597,687.9 585.2,684.7 573.6,705.9 560.3,732.5 569.6,735.3 
		580.8,712.4 637.2,743.2 701.7,770.4 679.6,813.1 679.3,852.4 632.2,854.1 633,862.7 788.5,857 788.6,848.4 686.9,852.4 687.7,816 
		711.4,772.8 765.1,691.9 808.6,698.6 793.2,797.4 788.6,846.8 788.3,875.4 787.5,894 730.6,898 651.3,915 639.8,918.1 	"/>
	<polygon fill="#F1E5CC" points="712.1,771.9 793.2,797.4 792.4,806.3 707.9,779.3 	"/>
	<polygon fill="#F1E5CC" points="670.5,757.2 655.1,787.1 684.7,803.3 682.4,807.7 648.3,789.1 665.3,755 	"/>
	<polyline fill="#F1E5CC" points="124.3,741.4 124.3,789.1 107,799.1 30,794.3 0.5,794.3 0.5,781.4 22.8,765.6 45.1,683.5 
		39.3,656.2 9.8,652.6 11.3,645.4 44.4,645.4 52.3,680.7 33.6,764.1 14.2,781.4 43.7,781.4 101.2,785.7 112.7,781.4 109.1,738.9 
		124.3,741.4 	"/>
	<polygon fill="#F1E5CC" points="418,87 409.9,349.7 403.4,460.5 399.8,531 404.1,645.4 405.6,767.7 396.8,766 396.8,636.1 
		392.6,528.8 392.6,456.9 400.5,349 402,79.7 462.3,0 474,0 	"/>
	<polygon fill="#F1E5CC" points="1079.7,559.1 902,564.8 841.6,603 765.3,569.9 648.3,545.4 622.9,548.3 618.5,603 604.9,656.2 
		597.4,665.2 592.6,654.8 599.8,623.8 613,586.4 613,545.4 621.4,533.9 648.3,533.9 766,560.5 836.2,586.8 886.2,555.5 911.4,548.3 
		929.4,525.2 1009.2,480.6 1045.2,453.3 1079.7,359 1079.7,385.8 1052.4,462.7 1079.7,480.6 1079.7,496.5 1040.9,471.3 977.6,512.1 
		922.2,547.6 1038,545.4 1079.7,544 	"/>
	<polygon fill="#F1E5CC" points="727.6,462.3 797,343.2 894.9,183.5 949,110 1080,46.5 1080,36 944,101 836.2,255.4 766,378.5 
		718.7,455.4 	"/>
	<polygon fill="#F1E5CC" points="397.4,392.2 325.7,378.5 314.2,372 327.1,323.1 311.8,300.5 304,306.7 314.2,325.2 307.7,367 
		286.8,365.5 286.8,372 335.8,392.2 335.1,418 342.1,418 345.1,394.3 397.4,403.7 	"/>
	<path fill="#F1E5CC" d="M392.6,523.8l-42.5-7l-83.1-23.2l-64.2-15.1l2.7-94.3l-12.9,0.7v86l-36.2-8.7h-46.1v9.7l44,0.5l40.5,10.8
		l15.1,115.8l-5.4,80.1l-11.9,61.4h4.9l12.4-61.9l6.5-49.6l67.5-1.6c0,0,47.5,26.4,48,28.1c0.5,1.6-10.8,47.5-10.8,47.5l-4,47.5
		l5.5,1.1l2.8-48l13-44.2l58.6-20.5l-0.3-8.1l-57.7,20l-47.5-25.9l-8.6-3.2H219l-4.9-39.9l-8.1-79.3l-3.2-17.3l90.7,23.7l48.6,13
		l50.5,7.2V523.8z"/>
	<polygon fill="#F1E5CC" points="332.9,519.2 282.7,621.5 286.8,623 332.9,535.7 337.9,520.5 	"/>
	<polygon fill="#F1E5CC" points="180.3,1269 205.5,1186.5 192.6,1179.3 224.3,1079.3 302.7,1092.2 349.3,1115.6 353.2,1106 
		299.8,1085 316.3,1027.5 310.3,1027.5 292.6,1079.3 253.6,1072.8 225.7,1069.6 250.2,994.4 278.2,884.3 278.9,873.5 319.2,877.1 
		334.3,879.2 337.9,873.5 282.7,865.6 286.8,840.4 278.9,836.1 267.4,882.1 214.2,867 173.2,831 124.3,810.8 88.9,798 79.6,806.3 
		114.9,817.4 79.6,887.2 55.2,867.7 49.4,874.9 73.9,894.4 0.5,1012.4 0.5,1026.7 9.8,1022.5 16.3,1009.5 79.6,901.5 158.1,952 
		110.3,997.6 32.9,1027.5 41.5,1035.4 120.6,1005.2 176.9,942.6 110.3,905.9 86.1,892.2 124.3,819.5 167.4,837.5 209.9,874.2 
		262.4,892.9 242.2,966.3 212,1078.5 184,1173.5 176.9,1185 190.4,1193.7 168.2,1263 114.3,1368 125,1368 	"/>
	<polygon fill="#F1E5CC" points="176.9,1185 131.4,1156.3 55.9,1073.5 0.5,1026.7 14.6,1012.9 32.9,1027.5 41.5,1035.4 80.4,1075.7 
		127.8,1126.8 163.8,1162 184,1173.5 	"/>
	<polygon fill="#F1E5CC" points="244.1,959.4 176.9,931.8 165.5,936.3 176.9,942.6 204.8,954.8 184,1005.2 160.9,1047.6 114.2,1039 
		100.3,1012.9 92.2,1016 104.1,1044 158.8,1059.8 189,1012.9 211.3,960.5 241,970.9 	"/>
	<polyline fill="#F1E5CC" points="96.9,377 96.8,374.9 92.2,241 100.3,0 116.3,0 104.3,221 104.3,319.7 110.3,376.6 	"/>
	<polygon fill="#F1E5CC" points="1079.7,1250 883,1230 821,1230 816.4,1212.4 800.6,1212.4 800.6,1237 741,1270 728.6,1212.4 
		720.7,1212.4 732,1270 605.9,1368 632,1368 702,1307 711,1303 727.6,1368 742,1368 718,1300 794,1253 855,1239 968,1252 
		1079.7,1264 	"/>
	<polygon fill="#F1E5CC" points="315.7,1223.7 366.1,1236.1 424.5,1138.6 433,1107.7 442.4,1110.5 433.5,1147.4 379.1,1236.1 
		425.4,1245.1 498.6,1219.6 507.5,1124.7 512.6,1125.8 512.6,1212.4 564.9,1200.1 565.3,1136.8 575,1142.3 575,1195.6 652.7,1185.6 
		664.6,1192.2 580.8,1204.6 631.1,1348.4 622,1355.5 592.6,1300.6 565,1212.4 460.6,1249.6 416.4,1260.1 425.4,1368 409,1368 
		400.1,1257.1 311.9,1232.1 	"/>
	<polygon fill="#F1E5CC" points="96.8,374.9 66,374.9 59,336 45.1,241 92.2,241 92.5,231.7 45.1,233 33,0 26,0 35,231 59,377 
		61.4,385.8 96.8,385.8 	"/>
	<polygon fill="#F1E5CC" points="198.4,373.6 204,163.7 204,103.7 37.8,92.9 37.8,102.3 191.7,113 193,164.3 107.4,164.4 
		106.8,174.4 193.7,175 193.7,265.5 104.3,265.5 104.3,275 193,275 192.3,373.6 	"/>
	<polygon fill="#F1E5CC" points="204,103.7 401.9,99 401.8,107.7 204,111.7 	"/>
	<polygon fill="#F1E5CC" points="345.7,100.3 345.7,35 339,0 331.7,0 338.7,35 338.7,100.5 	"/>
	<polygon fill="#F1E5CC" points="204,103.7 204,17.7 200.3,0 191.7,0 195,19 191.7,102.9 	"/>
	<polygon fill="#F1E5CC" points="409,70.5 392.7,19 392.7,0 383,0 383,17 402,79.7 	"/>
	<polygon fill="#F1E5CC" points="861.7,208.3 730.3,167.7 649.1,136.3 614.2,248.6 622,253 653,149.7 726.3,178.3 999.9,253 
		1080,276.3 1080,265.5 999.9,240.3 	"/>
</g>
<g id="Områden_x26_Byggnader">
	<polygon fill="#7CC9AD" points="400.1,538.2 404.8,705.8 507.7,737.9 496.9,795.1 533.4,795.1 586.8,685.2 521.8,666.6 
		558.8,567.9 474.3,538.2 	"/>
	<path id="Domkyrkan" fill="#B3CBEA" d="M476.3,737.3l10.1,3.4l0.1-0.4l2.3,0.8l-0.7,2.1l3.5,1.2l-1.1,3.3l-0.3-0.1l-2,6.1l2.3,0.8
		l0.3-0.8l2.2,0.7l-0.3,0.9c0,0,2.8,0.9,4.1,3.6c1.6,3.4,0.1,7.5,0.1,7.5s-1.3,4.2-4.6,5.9c-2.7,1.4-5.4,0.4-5.4,0.4l-0.3,0.9
		l-2.2-0.7l0.3-0.8l-2.3-0.8l-2,6l0.3,0.1l-1.1,3.3l-3.5-1.2l-0.7,2.1l-2.3-0.8l0.1-0.4l-10.1-3.4l-0.1,0.4l-2.3-0.8l0.9-2.5
		l0.3,0.1l0.9-2.8l-4.3-1.4l-0.1,0.4l-1.4-0.5l0.2-0.5l-3.9-1.3l-0.2,0.5l-1.1-0.4l0.1-0.4l-4.6-1.5l-0.1,0.4l-1.1-0.4l0.1-0.4
		l-4-1.3l-0.1,0.4l-1.3-0.4l0.1-0.4l-4.1-1.4l-0.1,0.4l-1.2-0.4l0.1-0.4l-3.8-1.3l-0.1,0.2l-1.2-0.4l0.1-0.3l-4.3-1.4l-0.2,0.5
		l-1.7-0.6l0.2-0.5l-4.2-1.4l-0.5,1.5l-2.5-0.8l0.4-1.1l-4.7-1.6l-0.4,1.1l-3.8-1.3l1.3-3.8l1.5,0.5l1.6-4.7l-1.5-0.5l1-2.8l1.5,0.5
		l3.4-10l-1.5-0.5l1-2.8l1.5,0.5l1.6-4.7l-1.5-0.5l1.3-3.8l3.8,1.3l-0.4,1.1l4.7,1.6l0.4-1.1l2.5,0.8l-0.5,1.5l4.2,1.4l0.2-0.5
		l1.7,0.6l-0.2,0.5l4.3,1.4l0.1-0.3l1.2,0.4l-0.1,0.2l3.8,1.3l0.1-0.4l1.2,0.4l-0.1,0.4l4.1,1.4l0.1-0.4l1.3,0.4l-0.1,0.4l4,1.3
		l0.1-0.4l1.1,0.4l-0.1,0.4l4.6,1.6l0.1-0.4l1.1,0.4l-0.2,0.5l3.9,1.3l0.2-0.5l1.4,0.5l-0.1,0.4l4.3,1.4l0.9-2.8l-0.3-0.1l0.9-2.5
		l2.3,0.8L476.3,737.3z"/>
	<polygon fill="#B3CBEA" points="666.7,248.6 649.1,280.2 677.2,297.7 695,259.1 	"/>
	<g>
		<path fill="#525A7B" d="M611,261.3l-2.5,4.2l1.7,1l-0.7,1.2l-3.1-1.9l3.3-5.4L611,261.3z"/>
		<path fill="#525A7B" d="M616.4,264.6l1.4,0.8l-1.8,3c-0.3,0.4-0.5,0.8-0.8,1c-0.2,0.3-0.6,0.4-0.9,0.5c-0.6,0.2-1.4,0-2.1-0.5
			c-0.8-0.5-1.3-1-1.4-1.7c-0.1-0.4-0.1-0.7,0-1.1c0.1-0.3,0.3-0.7,0.6-1.2l1.8-3l1.4,0.8l-1.7,2.8c-0.1,0.2-0.2,0.3-0.2,0.4
			c-0.1,0.1-0.1,0.3-0.2,0.4c-0.1,0.2-0.1,0.3-0.1,0.4c0,0.1,0.1,0.3,0.2,0.4c0.1,0.1,0.2,0.3,0.4,0.4c0.2,0.1,0.3,0.2,0.5,0.2
			c0.2,0,0.3,0,0.4,0c0.1,0,0.2-0.1,0.4-0.3c0.1-0.1,0.2-0.2,0.3-0.3c0.1-0.1,0.2-0.2,0.3-0.4L616.4,264.6z"/>
		<path fill="#525A7B" d="M615.5,271.3l3.3-5.4l1.4,0.8l0.6,4.8l0,0l2-3.3l1.4,0.8l-3.3,5.4l-1.4-0.8l-0.6-4.9l0,0l-2,3.3
			L615.5,271.3z"/>
		<path fill="#525A7B" d="M621.7,275.1l3.3-5.4l2,1.2c0.8,0.5,1.2,1.1,1.5,2c0.2,0.8,0.1,1.6-0.4,2.4c-0.5,0.8-1.1,1.2-2,1.4
			s-1.7,0.1-2.4-0.4L621.7,275.1z M625.7,271.8l-1.8,3l0.3,0.2c0.4,0.3,0.9,0.4,1.3,0.3c0.4-0.1,0.8-0.4,1.1-0.9
			c0.3-0.5,0.4-0.9,0.2-1.4c-0.1-0.4-0.4-0.8-0.9-1.1L625.7,271.8z"/>
		<path fill="#525A7B" d="M633.7,275.5l-1.2,0.7c-0.1-0.4-0.4-0.7-0.7-0.9c-0.1-0.1-0.3-0.1-0.5-0.1c-0.2,0-0.3,0.1-0.4,0.2
			c-0.1,0.1-0.1,0.2,0,0.3c0,0.1,0.1,0.2,0.1,0.3c0.1,0.1,0.1,0.2,0.2,0.3l0.3,0.3c0.3,0.4,0.6,0.8,0.7,1.1c0.1,0.4,0,0.8-0.2,1.2
			c-0.4,0.7-0.9,1-1.4,1.1c-0.6,0.1-1.2,0-1.8-0.4c-0.7-0.4-1.2-1-1.5-1.8l1.3-0.8c0.2,0.6,0.5,1.1,0.9,1.3c0.2,0.1,0.4,0.2,0.6,0.1
			c0.2,0,0.3-0.1,0.4-0.3c0.1-0.2,0-0.6-0.3-1c0,0-0.1-0.1-0.1-0.2c-0.2-0.2-0.4-0.4-0.5-0.6c-0.1-0.2-0.2-0.3-0.3-0.5
			c-0.1-0.2-0.1-0.4-0.1-0.6c0-0.2,0.1-0.4,0.3-0.7c0.3-0.5,0.8-0.9,1.3-1c0.5-0.1,1.1,0,1.6,0.3c0.3,0.2,0.5,0.4,0.8,0.6
			C633.3,274.9,633.5,275.2,633.7,275.5z"/>
		<path fill="#525A7B" d="M640.5,279.2l1.4,0.9l-1.8,3c-0.3,0.4-0.5,0.8-0.8,1c-0.2,0.3-0.6,0.4-0.9,0.5c-0.6,0.2-1.4,0-2.1-0.5
			s-1.3-1-1.4-1.7c-0.1-0.4-0.1-0.7,0-1.1s0.3-0.7,0.6-1.2l1.8-3l1.4,0.9l-1.7,2.8c-0.1,0.2-0.2,0.3-0.2,0.4
			c-0.1,0.1-0.1,0.3-0.2,0.4c-0.1,0.2-0.1,0.3-0.1,0.4c0,0.1,0.1,0.3,0.2,0.4c0.1,0.1,0.2,0.3,0.4,0.4c0.2,0.1,0.3,0.2,0.5,0.2
			c0.2,0,0.3,0,0.4,0c0.1,0,0.2-0.1,0.4-0.3c0.1-0.1,0.2-0.2,0.3-0.3c0.1-0.1,0.2-0.3,0.3-0.4L640.5,279.2z"/>
		<path fill="#525A7B" d="M639.5,285.9l3.3-5.4l1.4,0.8l0.6,4.8l0,0l2-3.3l1.4,0.8l-3.3,5.4l-1.4-0.8l-0.6-4.9l0,0l-2,3.3
			L639.5,285.9z"/>
		<path fill="#525A7B" d="M650.5,285.2l-3.3,5.4l-1.4-0.8l3.3-5.4L650.5,285.2z"/>
		<path fill="#525A7B" d="M652.3,286.4l-0.7,4.1l3.3-2.5l1.5,0.9l-5.6,4l-1.1-0.7l1-6.8L652.3,286.4z"/>
		<path fill="#525A7B" d="M659.1,292.1l-1.7-1l-0.5,0.9l1.6,1l-0.7,1.2l-1.6-1l-0.6,0.9l1.7,1l-0.7,1.2l-3.1-1.9l3.3-5.4l3.1,1.9
			L659.1,292.1z"/>
		<path fill="#525A7B" d="M661.6,296.3l0.4,3.2l-1.7-1.1l-0.1-2.9l0,0l-1.3,2.1l-1.4-0.8l3.3-5.4l2.1,1.3c0.6,0.3,0.9,0.8,1.1,1.2
			c0.2,0.5,0.1,1-0.2,1.6c-0.2,0.4-0.5,0.7-0.9,0.8C662.4,296.5,662,296.5,661.6,296.3z M661.5,293.4l-0.8,1.3l0.1,0.1
			c0.6,0.4,1.1,0.4,1.4-0.1c0.3-0.4,0.1-0.9-0.6-1.3L661.5,293.4z"/>
		<path fill="#525A7B" d="M668.9,296.8l-1.2,0.7c-0.1-0.4-0.4-0.7-0.7-0.9c-0.1-0.1-0.3-0.1-0.5-0.1c-0.2,0-0.3,0.1-0.4,0.2
			c-0.1,0.1-0.1,0.2,0,0.3c0,0.1,0.1,0.2,0.1,0.3c0.1,0.1,0.1,0.2,0.2,0.3l0.3,0.3c0.3,0.4,0.6,0.8,0.7,1.1c0.1,0.4,0,0.8-0.2,1.2
			c-0.4,0.7-0.9,1-1.4,1.1c-0.6,0.1-1.2,0-1.8-0.4c-0.7-0.4-1.2-1-1.5-1.8l1.3-0.8c0.2,0.6,0.5,1.1,0.9,1.3c0.2,0.1,0.4,0.2,0.6,0.1
			s0.3-0.1,0.4-0.3c0.1-0.2,0-0.6-0.3-1c0,0-0.1-0.1-0.1-0.2c-0.2-0.2-0.4-0.4-0.5-0.6c-0.1-0.2-0.2-0.3-0.3-0.5
			c-0.1-0.2-0.1-0.4-0.1-0.6c0-0.2,0.1-0.4,0.3-0.7c0.3-0.5,0.8-0.9,1.3-1s1.1,0,1.6,0.3c0.3,0.2,0.5,0.4,0.8,0.6
			C668.5,296.3,668.8,296.6,668.9,296.8z"/>
		<path fill="#525A7B" d="M671.4,297.9l-3.3,5.4l-1.4-0.8l3.3-5.4L671.4,297.9z"/>
		<path fill="#525A7B" d="M673.7,301l-2.5,4.2l-1.4-0.8l2.5-4.2l-1.2-0.7l0.7-1.2l3.7,2.3l-0.7,1.2L673.7,301z"/>
		<path fill="#525A7B" d="M678.4,303.8l-1.7-1l-0.5,0.9l1.6,1l-0.7,1.2l-1.6-1l-0.6,0.9l1.7,1l-0.7,1.2l-3.1-1.9l3.3-5.4l3.1,1.9
			L678.4,303.8z"/>
		<path fill="#525A7B" d="M681.4,305.7l-2.5,4.2l-1.4-0.8l2.5-4.2l-1.2-0.7l0.7-1.2l3.7,2.3l-0.7,1.2L681.4,305.7z"/>
		<path fill="#525A7B" d="M687.1,307.9l-1.2,0.7c-0.1-0.4-0.4-0.7-0.7-0.9c-0.1-0.1-0.3-0.1-0.5-0.1c-0.2,0-0.3,0.1-0.4,0.2
			c-0.1,0.1-0.1,0.2,0,0.3c0,0.1,0.1,0.2,0.1,0.3c0.1,0.1,0.1,0.2,0.2,0.3l0.3,0.3c0.3,0.4,0.6,0.8,0.7,1.1s0,0.8-0.2,1.2
			c-0.4,0.7-0.9,1-1.4,1.1c-0.6,0.1-1.2,0-1.8-0.4c-0.7-0.4-1.2-1-1.5-1.8l1.3-0.8c0.2,0.6,0.5,1.1,0.9,1.3c0.2,0.1,0.4,0.2,0.6,0.1
			c0.2,0,0.3-0.1,0.4-0.3c0.1-0.2,0-0.6-0.3-1c0,0-0.1-0.1-0.1-0.2c-0.2-0.2-0.4-0.4-0.5-0.6c-0.1-0.2-0.2-0.3-0.3-0.5
			c-0.1-0.2-0.1-0.4-0.1-0.6c0-0.2,0.1-0.4,0.3-0.7c0.3-0.5,0.8-0.9,1.3-1c0.5-0.1,1.1,0,1.6,0.3c0.3,0.2,0.5,0.4,0.8,0.6
			C686.8,307.4,687,307.7,687.1,307.9z"/>
		<path fill="#525A7B" d="M687.1,314.9l-2.2-1.3l3.3-5.4l2,1.2c1.1,0.6,1.3,1.4,0.7,2.4c-0.3,0.5-0.7,0.8-1.3,0.7l0,0
			c0.7,0.5,0.8,1.2,0.3,2c-0.2,0.3-0.4,0.5-0.6,0.6c-0.2,0.1-0.5,0.2-0.7,0.2c-0.3,0-0.5,0-0.8-0.1
			C687.6,315.1,687.4,315,687.1,314.9z M687.7,312.2l-0.7,1.2l0.2,0.1c0.1,0.1,0.2,0.1,0.2,0.1c0,0,0.1,0.1,0.2,0.1
			c0.1,0.1,0.2,0.1,0.3,0.1c0.1,0,0.2,0,0.3,0s0.2,0,0.3-0.1c0.1-0.1,0.1-0.1,0.2-0.2c0-0.1,0.1-0.1,0.1-0.2c0-0.1,0-0.1,0-0.2
			c0-0.1,0-0.1,0-0.2c0,0,0-0.1-0.1-0.2c-0.1-0.1-0.1-0.1-0.1-0.1c0,0-0.1-0.1-0.2-0.1c-0.1-0.1-0.1-0.1-0.2-0.1
			c0,0-0.1-0.1-0.2-0.1c-0.1-0.1-0.1-0.1-0.2-0.1L687.7,312.2z M689,310.1l-0.6,1l0.2,0.1c0.2,0.1,0.4,0.2,0.6,0.2
			c0.2,0,0.3-0.1,0.5-0.3c0.1-0.1,0.1-0.2,0.1-0.3s0-0.2-0.1-0.3c-0.1-0.1-0.1-0.2-0.2-0.2c-0.1-0.1-0.2-0.1-0.3-0.2L689,310.1z"/>
		<path fill="#525A7B" d="M694.4,312l-3.3,5.4l-1.4-0.8l3.3-5.4L694.4,312z"/>
		<path fill="#525A7B" d="M694.2,319.2l-2.2-1.3l3.3-5.4l2,1.2c1.1,0.6,1.3,1.4,0.7,2.4c-0.3,0.5-0.7,0.8-1.3,0.7l0,0
			c0.7,0.5,0.8,1.2,0.3,2c-0.2,0.3-0.4,0.5-0.6,0.6c-0.2,0.1-0.5,0.2-0.7,0.2c-0.3,0-0.5,0-0.8-0.1
			C694.8,319.5,694.5,319.4,694.2,319.2z M694.8,316.5l-0.7,1.2l0.2,0.1c0.1,0.1,0.2,0.1,0.2,0.1c0,0,0.1,0.1,0.2,0.1
			c0.1,0.1,0.2,0.1,0.3,0.1c0.1,0,0.2,0,0.3,0c0.1,0,0.2,0,0.3-0.1c0.1,0,0.1-0.1,0.2-0.2c0-0.1,0.1-0.1,0.1-0.2c0-0.1,0-0.1,0-0.2
			c0-0.1,0-0.1,0-0.2c0,0,0-0.1-0.1-0.2c-0.1-0.1-0.1-0.1-0.1-0.1c0,0-0.1-0.1-0.2-0.1c-0.1-0.1-0.1-0.1-0.2-0.1
			c0,0-0.1-0.1-0.2-0.1c-0.1-0.1-0.1-0.1-0.2-0.1L694.8,316.5z M696.1,314.4l-0.6,1l0.2,0.1c0.2,0.1,0.4,0.2,0.6,0.2
			c0.2,0,0.3-0.1,0.5-0.3c0.1-0.1,0.1-0.2,0.1-0.3s0-0.2-0.1-0.3c-0.1-0.1-0.1-0.2-0.2-0.2c-0.1-0.1-0.2-0.1-0.3-0.2L696.1,314.4z"
			/>
		<path fill="#525A7B" d="M701.6,316.3l-2.5,4.2l1.7,1l-0.7,1.2l-3.1-1.9l3.3-5.4L701.6,316.3z"/>
		<path fill="#525A7B" d="M705.1,318.4l-3.3,5.4l-1.4-0.9l3.3-5.4L705.1,318.4z"/>
		<path fill="#525A7B" d="M707.2,319.9c0.6,0,1.1,0.2,1.7,0.5s0.9,0.7,1.2,1.2c0.3,0.5,0.5,1.1,0.5,1.7c0,0.6-0.1,1.2-0.5,1.7
			c-0.5,0.9-1.2,1.4-2.1,1.6c-0.9,0.2-1.8,0.1-2.6-0.5c-0.9-0.5-1.4-1.2-1.6-2.1c-0.2-0.9-0.1-1.8,0.5-2.6c0.3-0.5,0.8-0.9,1.3-1.2
			C706,320,706.6,319.9,707.2,319.9z M708.8,322.9c-0.1-0.5-0.4-0.8-0.8-1.1c-0.4-0.3-0.9-0.3-1.3-0.2c-0.5,0.1-0.8,0.3-1.1,0.7
			c-0.3,0.5-0.4,0.9-0.3,1.4c0.1,0.5,0.4,0.9,0.8,1.1s0.9,0.3,1.4,0.2c0.5-0.1,0.9-0.4,1.1-0.9C708.9,323.8,709,323.4,708.8,322.9z"
			/>
		<path fill="#525A7B" d="M713.8,325.3l-2.5,4.2l-1.4-0.8l2.5-4.2l-1.2-0.7l0.7-1.2l3.7,2.3l-0.7,1.2L713.8,325.3z"/>
		<path fill="#525A7B" d="M718.5,328.2l-1.7-1l-0.5,0.9l1.6,1l-0.7,1.2l-1.6-1l-0.6,0.9l1.7,1l-0.7,1.2l-3.1-1.9l3.3-5.4l3.1,1.9
			L718.5,328.2z"/>
		<path fill="#525A7B" d="M720.2,330.6l3-1.2l1.7,1.1l-3.7,1.2l0.6,4.2l-1.8-1.1l-0.4-3.4l0,0l-1.4,2.3l-1.4-0.9l3.3-5.4l1.4,0.8
			L720.2,330.6L720.2,330.6z"/>
	</g>
	<polygon fill="#B3CBEA" points="452.7,154.2 455.1,188.4 513.1,188.4 515.3,165 504.8,154.2 	"/>
	<g>
		<path fill="#525A7B" d="M437.4,197.6l-2.3,0l-0.4,1.1l-1.7,0l2.4-6.3l1.8,0l2.4,6.3l-1.7,0L437.4,197.6z M436.9,196.3l-0.7-2l0,0
			l-0.7,2L436.9,196.3z"/>
		<path fill="#525A7B" d="M441.6,192.4l0,4.9l2,0l0,1.4l-3.6,0l0-6.3L441.6,192.4z"/>
		<path fill="#525A7B" d="M445.8,192.4l0,4.9l2,0l0,1.4l-3.6,0l0-6.3L445.8,192.4z"/>
		<path fill="#525A7B" d="M449.9,194.8l2.4,0l0-2.4l1.6,0l0,6.3l-1.6,0l0-2.6l-2.4,0l0,2.6l-1.6,0l0-6.3l1.6,0L449.9,194.8z"/>
		<path fill="#525A7B" d="M458.6,193.7l-1.9,0l0,1.1l1.8,0l0,1.4l-1.8,0l0,1.1l1.9,0l0,1.4l-3.6,0l0-6.3l3.6,0L458.6,193.7z"/>
		<path fill="#525A7B" d="M461.2,192.3l0,4.9l2,0l0,1.4l-3.6,0l0-6.3L461.2,192.3z"/>
		<path fill="#525A7B" d="M466.7,195l3.2,0c0,0.5-0.1,1-0.1,1.4c-0.1,0.4-0.2,0.7-0.5,1.1c-0.6,0.8-1.5,1.2-2.6,1.2
			c-1,0-1.8-0.3-2.4-0.9c-0.6-0.6-0.9-1.4-0.9-2.4c0-1,0.3-1.8,0.9-2.5c0.6-0.6,1.4-0.9,2.5-0.9c0.7,0,1.2,0.1,1.7,0.4
			c0.5,0.3,0.9,0.7,1.1,1.3l-1.5,0.7c-0.1-0.3-0.3-0.6-0.5-0.7c-0.2-0.2-0.5-0.3-0.8-0.3c-0.5,0-0.9,0.2-1.2,0.6
			c-0.3,0.4-0.4,0.9-0.4,1.4c0,0.5,0.2,1,0.5,1.4c0.3,0.4,0.7,0.6,1.2,0.6c0.4,0,0.7-0.1,0.9-0.3c0.2-0.2,0.4-0.5,0.4-0.8l-1.3,0
			L466.7,195z"/>
		<path fill="#525A7B" d="M472.2,192.4c0.5-0.3,1.1-0.4,1.7-0.4c0.6,0,1.2,0.1,1.7,0.4c0.5,0.3,1,0.7,1.3,1.2
			c0.3,0.5,0.5,1.1,0.5,1.7c0,1-0.3,1.9-1,2.5c-0.7,0.7-1.5,1-2.5,1c-1,0-1.8-0.3-2.5-1c-0.7-0.6-1-1.5-1-2.5c0-0.6,0.2-1.2,0.5-1.7
			C471.2,193.1,471.7,192.7,472.2,192.4z M475.1,194.1c-0.4-0.3-0.8-0.5-1.3-0.5s-0.9,0.2-1.3,0.5s-0.5,0.7-0.5,1.2
			c0,0.5,0.2,1,0.5,1.3c0.3,0.4,0.8,0.5,1.3,0.5c0.5,0,0.9-0.2,1.3-0.5c0.3-0.4,0.5-0.8,0.5-1.3
			C475.7,194.8,475.5,194.4,475.1,194.1z"/>
		<path fill="#525A7B" d="M478.2,198.5l0-6.3l1.6,0l3,3.8h0l0-3.8l1.6,0l0,6.3l-1.6,0l-3-3.8h0l0,3.9L478.2,198.5z"/>
		<path fill="#525A7B" d="M489.4,197.4l-2.3,0l-0.4,1.1l-1.7,0l2.4-6.3l1.8,0l2.4,6.3l-1.7,0L489.4,197.4z M488.9,196.1l-0.7-2h0
			l-0.7,2L488.9,196.1z"/>
		<path fill="#525A7B" d="M493.7,194.8l2-2.6l2,0l-2.5,3l2.7,3.3l-2.1,0l-2.1-2.7h0l0,2.7l-1.6,0l0-6.3l1.6,0L493.7,194.8
			L493.7,194.8z"/>
		<path fill="#525A7B" d="M500,195.4l-2.3-3.3l2,0l1.2,1.7l1.2-1.7l2,0l-2.3,3.3l0,3l-1.6,0L500,195.4z"/>
		<path fill="#525A7B" d="M507.6,195.8l2,2.6l-2,0L506,196l0,0l0,2.4l-1.6,0l0-6.3l2.4,0c0.7,0,1.2,0.2,1.6,0.5
			c0.4,0.3,0.6,0.8,0.6,1.5c0,0.5-0.1,0.8-0.4,1.2C508.3,195.5,508,195.7,507.6,195.8z M505.9,193.4l0,1.6l0.2,0
			c0.8,0,1.1-0.3,1.1-0.8c0-0.5-0.4-0.8-1.1-0.8L505.9,193.4z"/>
		<path fill="#525A7B" d="M511.6,194.7l2-2.6l2,0l-2.5,3l2.7,3.3l-2.1,0l-2.1-2.7h0l0,2.7l-1.6,0l0-6.3l1.6,0L511.6,194.7
			L511.6,194.7z"/>
		<path fill="#525A7B" d="M520.2,197.2l-2.3,0l-0.4,1.1l-1.7,0l2.4-6.3l1.8,0l2.4,6.3l-1.7,0L520.2,197.2z M519.7,196l-0.7-2h0
			l-0.7,2L519.7,196z"/>
		<path fill="#525A7B" d="M522.8,198.3l0-6.3l1.6,0l3,3.8h0l0-3.8l1.6,0l0,6.3l-1.6,0l-3-3.8h0l0,3.9L522.8,198.3z"/>
	</g>
	<polygon fill="#B3CBEA" points="47.3,412.3 62.4,533.2 73.9,708.7 51.1,702.2 39.3,630.3 16.3,525.2 16.3,426 	"/>
	<g>
		<path fill="#525A7B" d="M38.9,593.2l15.2-1.5l-0.6-6.1l4.3-0.4l1.1,11.1l-19.4,1.9L38.9,593.2z"/>
		<path fill="#525A7B" d="M36.9,573.7l-0.5-5.1l10.9-1.1c1.6-0.2,2.9-0.2,4,0c1.1,0.1,2.1,0.6,3,1.4c1.6,1.3,2.5,3.4,2.8,6.2
			c0.3,2.8-0.2,5.1-1.5,6.7c-0.8,0.9-1.7,1.6-2.7,1.9c-1,0.4-2.4,0.6-3.9,0.8l-10.9,1.1l-0.5-5.1l10.2-1c0.6-0.1,1.1-0.1,1.5-0.2
			c0.4-0.1,0.9-0.2,1.4-0.4c0.5-0.2,0.9-0.4,1.2-0.7c0.3-0.3,0.5-0.6,0.7-1.1c0.2-0.5,0.2-1,0.2-1.6c-0.1-0.6-0.2-1.1-0.5-1.6
			c-0.3-0.4-0.6-0.7-0.9-0.9c-0.3-0.2-0.8-0.3-1.3-0.4c-0.5-0.1-1-0.1-1.4-0.1c-0.4,0-0.9,0.1-1.6,0.1L36.9,573.7z"/>
		<path fill="#525A7B" d="M55.6,563.6l-19.4,1.9l-0.5-5.1l11-10.4l0-0.1l-11.9,1.2l-0.5-5.1l19.4-1.9l0.5,5.1l-11,10.4l0,0.1
			l11.9-1.2L55.6,563.6z"/>
		<path fill="#525A7B" d="M53.3,540.8l-19.4,1.9l-0.7-7.2c-0.3-2.7,0.4-5.1,2.1-7.3c1.7-2.1,3.9-3.3,6.6-3.6
			c2.7-0.3,5.1,0.5,7.2,2.2c2.1,1.7,3.2,4,3.5,6.7L53.3,540.8z M37.7,537.3l10.9-1.1l-0.1-1.1c-0.2-1.6-0.7-2.9-1.8-3.9
			c-1-1-2.4-1.4-4.2-1.2c-1.7,0.2-3,0.8-3.8,1.9c-0.9,1.1-1.2,2.5-1,4.2L37.7,537.3z"/>
		<path fill="#525A7B" d="M30.2,500.6l6.1-0.6c-0.6,0.6-1.1,1.3-1.4,2.1c-0.3,0.8-0.4,1.7-0.3,2.5c0.2,1.5,0.8,2.7,1.9,3.6
			c1.1,0.9,2.5,1.2,4,1.1c1.5-0.2,2.8-0.8,3.7-1.8c0.9-1.1,1.3-2.4,1.1-3.9c-0.1-0.8-0.3-1.6-0.8-2.3c-0.4-0.7-1-1.3-1.7-1.8
			l6.1-0.6c0.8,1.9,1.2,3.4,1.3,4.4c0.3,2.8-0.4,5.3-2.1,7.6c-1.7,2.3-4,3.5-7,3.8c-2.8,0.3-5.2-0.4-7.4-2.2c-1.1-0.9-2-1.9-2.6-3.2
			c-0.7-1.2-1.1-2.6-1.2-3.9C29.5,503.8,29.7,502.3,30.2,500.6z"/>
	</g>
	<polygon fill="#B3CBEA" points="189,391.4 189,465.5 155.9,456.2 113.5,457.6 113.5,391.4 	"/>
	<g>
		<path fill="#525A7B" d="M129.2,474.1v3c-0.3-0.3-0.6-0.6-1-0.8c-0.4-0.2-0.8-0.3-1.2-0.3c-0.8,0-1.4,0.3-1.9,0.8
			c-0.5,0.5-0.7,1.2-0.7,1.9c0,0.8,0.2,1.4,0.7,1.9c0.5,0.5,1.1,0.7,1.9,0.7c0.4,0,0.8-0.1,1.2-0.3c0.4-0.2,0.7-0.4,1-0.8v3
			c-1,0.3-1.7,0.5-2.2,0.5c-1.4,0-2.6-0.5-3.7-1.4c-1-0.9-1.6-2.2-1.6-3.7c0-1.4,0.5-2.6,1.4-3.6c0.5-0.5,1.1-0.9,1.7-1.2
			c0.7-0.3,1.3-0.4,2-0.4C127.6,473.6,128.4,473.8,129.2,474.1z"/>
		<path fill="#525A7B" d="M133.3,473.9v7.6h3v2.1h-5.6v-9.8H133.3z"/>
		<path fill="#525A7B" d="M142.7,476.1h-3v1.6h2.9v2.1h-2.9v1.7h3v2.1h-5.5v-9.8h5.5V476.1z"/>
		<path fill="#525A7B" d="M143.7,483.7l1.7-9.8h2.5l2,5.2l2.1-5.2h2.5l1.5,9.8h-2.5l-0.7-5.6h0l-2.3,5.6h-1L147,478h0l-0.8,5.6
			H143.7z"/>
		<path fill="#525A7B" d="M162.5,476.1h-3v1.6h2.9v2.1h-2.9v1.7h3v2.1H157v-9.8h5.5V476.1z"/>
		<path fill="#525A7B" d="M164.1,483.7v-9.8h2.5l4.6,6h0v-6h2.5v9.8h-2.5l-4.6-6h0v6H164.1z"/>
		<path fill="#525A7B" d="M181.8,474.4l-1,2c-0.5-0.4-1.1-0.6-1.7-0.6c-0.3,0-0.5,0.1-0.7,0.2c-0.2,0.1-0.3,0.3-0.3,0.6
			c0,0.2,0.1,0.3,0.2,0.5c0.1,0.1,0.3,0.2,0.4,0.3s0.3,0.1,0.5,0.2l0.6,0.2c0.8,0.2,1.3,0.5,1.8,1c0.4,0.4,0.6,1,0.6,1.7
			c0,1.2-0.3,2.1-1,2.6c-0.7,0.6-1.6,0.9-2.8,0.9c-1.2,0-2.4-0.4-3.4-1.1l1.1-2c0.8,0.7,1.5,1,2.3,1c0.3,0,0.6-0.1,0.9-0.3
			c0.2-0.2,0.4-0.4,0.4-0.7c0-0.4-0.4-0.8-1.2-1c0,0-0.1,0-0.3-0.1c-0.5-0.1-0.8-0.2-1.1-0.4c-0.3-0.1-0.5-0.3-0.8-0.5
			c-0.3-0.2-0.5-0.5-0.6-0.8c-0.1-0.3-0.2-0.7-0.2-1.2c0-1,0.3-1.8,0.9-2.4c0.6-0.6,1.4-0.9,2.4-0.9c0.5,0,1,0.1,1.6,0.2
			S181.4,474.2,181.8,474.4z"/>
		<path fill="#525A7B" d="M187.3,476.1v7.6h-2.5v-7.6h-2.1v-2.1h6.7v2.1H187.3z"/>
		<path fill="#525A7B" d="M192.6,474.2c0.8-0.4,1.7-0.6,2.6-0.6c0.9,0,1.8,0.2,2.6,0.6c0.8,0.4,1.5,1,2,1.8s0.8,1.6,0.8,2.6
			c0,1.6-0.5,2.9-1.5,3.9c-1,1-2.3,1.5-3.9,1.5c-1.6,0-2.9-0.5-3.9-1.5c-1-1-1.5-2.3-1.5-3.9c0-1,0.3-1.8,0.8-2.6
			S191.8,474.6,192.6,474.2z M197.2,476.8c-0.5-0.5-1.2-0.8-1.9-0.8s-1.4,0.3-1.9,0.8c-0.5,0.5-0.8,1.1-0.8,1.8
			c0,0.8,0.3,1.5,0.8,2.1c0.5,0.6,1.2,0.8,2,0.8c0.8,0,1.4-0.3,2-0.8s0.8-1.2,0.8-2.1C198,477.9,197.7,477.3,197.2,476.8z"/>
		<path fill="#525A7B" d="M206.8,479.7l3.1,4h-3.2l-2.4-3.8h0v3.8h-2.5v-9.8h3.8c1,0,1.8,0.3,2.5,0.8s0.9,1.2,0.9,2.2
			c0,0.7-0.2,1.3-0.6,1.8S207.5,479.5,206.8,479.7z M204.3,475.8v2.4h0.2c1.2,0,1.8-0.4,1.8-1.2s-0.6-1.2-1.8-1.2H204.3z"/>
		<path fill="#525A7B" d="M215.3,478.2h5c0,0.8-0.1,1.6-0.2,2.1c-0.1,0.6-0.4,1.2-0.8,1.7c-0.9,1.3-2.3,1.9-4,1.9
			c-1.5,0-2.8-0.5-3.8-1.4c-1-1-1.4-2.2-1.4-3.7c0-1.6,0.5-2.8,1.5-3.8c1-1,2.3-1.4,3.8-1.4c1,0,1.9,0.2,2.7,0.7s1.3,1.1,1.7,2
			l-2.4,1c-0.2-0.5-0.5-0.9-0.8-1.1s-0.8-0.4-1.3-0.4c-0.8,0-1.4,0.3-1.9,0.9s-0.7,1.3-0.7,2.1s0.2,1.5,0.7,2.1
			c0.5,0.6,1.1,0.9,1.9,0.9c0.6,0,1-0.1,1.4-0.4c0.4-0.3,0.6-0.7,0.6-1.3h-2.1V478.2z"/>
		<path fill="#525A7B" d="M227,476.1h-3v1.6h2.9v2.1H224v1.7h3v2.1h-5.5v-9.8h5.5V476.1z"/>
		<path fill="#525A7B" d="M232.5,476.1v7.6h-2.5v-7.6h-2.1v-2.1h6.7v2.1H232.5z"/>
	</g>
	<g>
		<path fill="#525A7B" d="M417.2,782l3-9.3l3.4,1.1c1.3,0.4,2.3,1.2,2.9,2.4c0.6,1.2,0.7,2.4,0.3,3.7c-0.4,1.3-1.2,2.2-2.4,2.8
			c-1.2,0.6-2.5,0.7-3.8,0.3L417.2,782z M421.9,775.6l-1.7,5.2l0.5,0.2c0.8,0.2,1.5,0.2,2.1,0c0.6-0.3,1.1-0.8,1.4-1.7
			c0.3-0.8,0.2-1.5-0.1-2.1c-0.3-0.6-0.9-1.1-1.7-1.3L421.9,775.6z"/>
		<path fill="#525A7B" d="M431.5,776.7c0.9-0.1,1.8-0.1,2.7,0.2c0.9,0.3,1.7,0.8,2.3,1.4c0.6,0.6,1.1,1.4,1.3,2.3
			c0.2,0.9,0.2,1.8-0.1,2.7c-0.5,1.5-1.4,2.6-2.6,3.2c-1.3,0.6-2.7,0.7-4.1,0.2c-1.5-0.5-2.6-1.4-3.2-2.6c-0.7-1.3-0.7-2.7-0.3-4.2
			c0.3-0.9,0.8-1.7,1.5-2.2C429.8,777.3,430.6,776.9,431.5,776.7z M435,780.6c-0.4-0.7-0.9-1.1-1.6-1.3s-1.4-0.2-2.1,0.1
			c-0.7,0.3-1.1,0.8-1.3,1.5c-0.3,0.8-0.2,1.5,0.1,2.2c0.3,0.7,0.9,1.2,1.6,1.4c0.7,0.2,1.4,0.2,2.1-0.2c0.7-0.4,1.1-0.9,1.4-1.7
			C435.5,781.9,435.4,781.3,435,780.6z"/>
		<path fill="#525A7B" d="M436.8,788.4l4.6-8.8l2.4,0.8l0.3,5.6l3.6-4.3l2.4,0.8l-1.6,9.7l-2.4-0.8l1.1-5.6l0,0l-4,4.6l-1-0.3
			l-0.4-6l0,0l-2.5,5.1L436.8,788.4z"/>
		<path fill="#525A7B" d="M453.6,787.8l4.2-2.9l3,1l-5.1,3.2l2.4,6.2l-3.1-1l-1.8-5l0,0l-1.3,4l-2.4-0.8l3-9.3l2.4,0.8L453.6,787.8
			L453.6,787.8z"/>
		<path fill="#525A7B" d="M462.6,791.8l-1.9-5.9l2.9,0.9l0.9,3.1l2.6-2l2.9,0.9l-5,3.7l-1.4,4.5l-2.4-0.8L462.6,791.8z"/>
		<path fill="#525A7B" d="M473.6,796.1l1.7,4.7l-3-1l-1.1-4.3l0,0l-1.2,3.6l-2.4-0.8l3-9.3l3.6,1.2c1,0.3,1.7,0.8,2.1,1.5
			c0.4,0.7,0.5,1.5,0.2,2.4c-0.2,0.7-0.6,1.2-1.1,1.5C474.8,796,474.2,796.2,473.6,796.1z M472.4,791.7l-0.7,2.3l0.2,0.1
			c1.1,0.4,1.8,0.2,2-0.6c0.2-0.8-0.2-1.3-1.3-1.7L472.4,791.7z"/>
		<path fill="#525A7B" d="M480.1,796.4l4.2-2.9l3,1l-5.1,3.2l2.4,6.2l-3.1-1l-1.8-5l0,0l-1.3,4l-2.4-0.8l3-9.3l2.4,0.8L480.1,796.4
			L480.1,796.4z"/>
		<path fill="#525A7B" d="M491.4,804.3l-3.3-1.1l-1.2,1.4l-2.6-0.8l6.6-8.1l2.6,0.9l0.5,10.4l-2.6-0.8L491.4,804.3z M491.4,802.2
			l0-3.3l0,0l-2,2.6L491.4,802.2z"/>
		<path fill="#525A7B" d="M494.8,807.2l3-9.3l2.4,0.8l2.6,7.1l0,0l1.8-5.7l2.4,0.8l-3,9.3l-2.4-0.8l-2.6-7.1l0,0l-1.8,5.7
			L494.8,807.2z"/>
	</g>
	<polygon fill="#B3CBEA" points="555.2,975.7 556.7,1014.5 652.7,1019.2 641.6,975.7 	"/>
	<g>
		<path fill="#525A7B" d="M565,1024.8l1.5-6.6l1.7,0.1l1.2,3.6l1.6-3.5l1.7,0.1l0.6,6.7l-1.7-0.1l-0.3-3.8l0,0l-1.8,3.7l-0.7,0
			l-1.3-3.9l0,0l-0.8,3.8L565,1024.8z"/>
		<path fill="#525A7B" d="M578.2,1024.3l-2.4-0.1l-0.5,1.1l-1.8-0.1l2.9-6.5l1.9,0.1l2.1,6.8l-1.8-0.1L578.2,1024.3z M577.4,1016.5
			c0.4,0,0.7,0.1,1,0.3c0.3,0.2,0.4,0.4,0.4,0.8c0,0.3-0.2,0.6-0.4,0.7c-0.3,0.2-0.6,0.2-1,0.2c-0.4,0-0.7-0.1-1-0.3
			c-0.3-0.2-0.4-0.4-0.4-0.8c0-0.4,0.2-0.6,0.4-0.8C576.7,1016.5,577,1016.5,577.4,1016.5z M577.8,1023l-0.6-2.1l0,0l-0.8,2.1
			L577.8,1023z M577.4,1017.1c-0.1,0-0.3,0-0.4,0.1c-0.1,0.1-0.2,0.1-0.2,0.3s0,0.2,0.1,0.3c0.1,0.1,0.2,0.1,0.4,0.1
			c0.1,0,0.3,0,0.4-0.1c0.1-0.1,0.2-0.1,0.2-0.3s0-0.2-0.1-0.3C577.6,1017.2,577.5,1017.1,577.4,1017.1z"/>
		<path fill="#525A7B" d="M584.5,1023.1l1.9,2.8l-2.1-0.1l-1.5-2.6h0l-0.1,2.6l-1.7-0.1l0.4-6.6l2.6,0.1c0.7,0,1.2,0.2,1.6,0.6
			c0.4,0.4,0.6,0.9,0.6,1.6c0,0.5-0.2,0.9-0.4,1.2C585.4,1022.8,585,1023,584.5,1023.1z M583,1020.4l-0.1,1.7l0.2,0
			c0.8,0,1.2-0.2,1.2-0.8c0-0.6-0.4-0.8-1.2-0.9L583,1020.4z"/>
		<path fill="#525A7B" d="M589.8,1020.9l-0.3,5.2l-1.7-0.1l0.3-5.2l-1.4-0.1l0.1-1.5l4.6,0.2l-0.1,1.5L589.8,1020.9z"/>
		<path fill="#525A7B" d="M595.7,1021.2l-2-0.1l-0.1,1.1l1.9,0.1l-0.1,1.5l-1.9-0.1l-0.1,1.1l2,0.1l-0.1,1.5l-3.8-0.2l0.4-6.6
			l3.8,0.2L595.7,1021.2z"/>
		<path fill="#525A7B" d="M596.5,1026.4l0.4-6.6l1.7,0.1l2.9,4.2l0,0l0.2-4.1l1.7,0.1l-0.4,6.6l-1.7-0.1l-2.9-4.2l0,0l-0.2,4.1
			L596.5,1026.4z"/>
		<path fill="#525A7B" d="M608.9,1020.8l-0.8,1.3c-0.3-0.3-0.7-0.5-1.1-0.5c-0.2,0-0.4,0-0.5,0.1c-0.2,0.1-0.2,0.2-0.3,0.4
			c0,0.1,0,0.2,0.1,0.3c0.1,0.1,0.2,0.2,0.3,0.2s0.2,0.1,0.3,0.1l0.4,0.2c0.5,0.2,0.9,0.4,1.2,0.7c0.3,0.3,0.4,0.7,0.4,1.2
			c0,0.8-0.3,1.4-0.8,1.7c-0.5,0.4-1.2,0.6-1.9,0.5c-0.8,0-1.6-0.3-2.3-0.9l0.8-1.3c0.5,0.5,1,0.7,1.5,0.8c0.2,0,0.4,0,0.6-0.1
			c0.2-0.1,0.3-0.3,0.3-0.5c0-0.3-0.3-0.5-0.8-0.7c0,0-0.1,0-0.2-0.1c-0.3-0.1-0.6-0.2-0.7-0.3c-0.2-0.1-0.4-0.2-0.5-0.4
			c-0.2-0.1-0.3-0.3-0.4-0.5c-0.1-0.2-0.1-0.5-0.1-0.8c0-0.7,0.3-1.2,0.7-1.6c0.4-0.4,1-0.6,1.7-0.5c0.3,0,0.7,0.1,1.1,0.2
			C608.3,1020.5,608.6,1020.6,608.9,1020.8z"/>
		<path fill="#525A7B" d="M612.5,1022.1l-0.3,5.2l-1.7-0.1l0.3-5.2l-1.4-0.1l0.1-1.5l4.6,0.2l-0.1,1.5L612.5,1022.1z"/>
		<path fill="#525A7B" d="M616.2,1021c0.6-0.3,1.2-0.4,1.8-0.3c0.6,0,1.2,0.2,1.8,0.5c0.5,0.3,1,0.7,1.3,1.3
			c0.3,0.5,0.5,1.1,0.4,1.8c-0.1,1.1-0.4,1.9-1.2,2.6c-0.7,0.6-1.6,0.9-2.7,0.9c-1.1-0.1-1.9-0.4-2.6-1.2c-0.7-0.7-0.9-1.6-0.9-2.7
			c0-0.7,0.2-1.2,0.6-1.7C615.2,1021.7,615.6,1021.3,616.2,1021z M619.2,1023c-0.3-0.4-0.8-0.6-1.3-0.6s-1,0.1-1.3,0.5
			c-0.4,0.3-0.6,0.7-0.6,1.2c0,0.6,0.1,1,0.5,1.4c0.3,0.4,0.8,0.6,1.3,0.6c0.5,0,1-0.1,1.4-0.5c0.4-0.4,0.6-0.8,0.6-1.4
			C619.7,1023.8,619.6,1023.4,619.2,1023z"/>
		<path fill="#525A7B" d="M625.7,1025.3l1.9,2.8l-2.1-0.1l-1.5-2.6l0,0l-0.1,2.6l-1.7-0.1l0.4-6.6l2.6,0.1c0.7,0,1.2,0.2,1.6,0.6
			s0.6,0.9,0.6,1.6c0,0.5-0.2,0.9-0.4,1.2C626.5,1025,626.2,1025.2,625.7,1025.3z M624.1,1022.6l-0.1,1.7l0.2,0
			c0.8,0,1.2-0.2,1.2-0.8c0-0.6-0.4-0.8-1.2-0.9L624.1,1022.6z"/>
		<path fill="#525A7B" d="M631.5,1024.6l3.4,0.2c0,0.6-0.1,1.1-0.2,1.5c-0.1,0.4-0.3,0.8-0.6,1.1c-0.7,0.8-1.6,1.2-2.8,1.2
			c-1-0.1-1.9-0.4-2.5-1.1c-0.6-0.7-0.9-1.5-0.9-2.6c0.1-1.1,0.4-1.9,1.1-2.5c0.7-0.6,1.6-0.9,2.7-0.8c0.7,0,1.3,0.2,1.8,0.6
			c0.5,0.3,0.9,0.8,1.1,1.5l-1.7,0.6c-0.1-0.3-0.3-0.6-0.5-0.8s-0.5-0.3-0.9-0.3c-0.5,0-1,0.2-1.3,0.6c-0.3,0.4-0.5,0.9-0.5,1.4
			c0,0.6,0.1,1,0.4,1.5c0.3,0.4,0.7,0.7,1.2,0.7c0.4,0,0.7-0.1,1-0.2c0.3-0.2,0.4-0.5,0.5-0.8l-1.4-0.1L631.5,1024.6z"/>
		<path fill="#525A7B" d="M639.6,1023.5l-2-0.1l-0.1,1.1l1.9,0.1l-0.1,1.5l-1.9-0.1l-0.1,1.1l2,0.1l-0.1,1.5l-3.8-0.2l0.4-6.6
			l3.8,0.2L639.6,1023.5z"/>
		<path fill="#525A7B" d="M643.3,1023.7l-0.3,5.2l-1.7-0.1l0.3-5.2l-1.4-0.1l0.1-1.5l4.6,0.2l-0.1,1.5L643.3,1023.7z"/>
	</g>
	<polygon fill="#B3CBEA" points="413.8,850.8 420,914.8 433,918.5 453.2,870.8 436.2,857.3 	"/>
	<g>
		<path fill="#525A7B" d="M452.4,897.2l0.9,0.6c-0.2,0.2-0.4,0.5-0.4,0.8c0,0.1,0,0.3,0.1,0.4c0.1,0.1,0.1,0.2,0.3,0.2
			c0.1,0,0.2,0,0.2-0.1c0.1-0.1,0.1-0.1,0.2-0.2c0-0.1,0.1-0.1,0.1-0.2l0.1-0.3c0.2-0.4,0.3-0.6,0.6-0.8c0.2-0.2,0.5-0.3,0.9-0.2
			c0.6,0.1,1,0.3,1.2,0.6c0.3,0.4,0.4,0.8,0.3,1.4c-0.1,0.6-0.3,1.1-0.7,1.6l-0.9-0.6c0.4-0.3,0.6-0.7,0.6-1c0-0.2,0-0.3-0.1-0.4
			c-0.1-0.1-0.2-0.2-0.3-0.2c-0.2,0-0.4,0.2-0.6,0.5c0,0,0,0.1-0.1,0.1c-0.1,0.2-0.2,0.4-0.2,0.5c-0.1,0.1-0.2,0.2-0.3,0.4
			c-0.1,0.1-0.2,0.2-0.4,0.2c-0.2,0-0.3,0-0.6,0c-0.5-0.1-0.8-0.2-1.1-0.6c-0.3-0.3-0.4-0.7-0.3-1.2c0-0.2,0.1-0.5,0.2-0.7
			C452.1,897.6,452.3,897.4,452.4,897.2z"/>
		<path fill="#525A7B" d="M453.5,894.6l3.7,0.4l-0.1,1.2l-3.7-0.4l-0.1,1l-1-0.1l0.4-3.3l1,0.1L453.5,894.6z"/>
		<path fill="#525A7B" d="M452.9,892c-0.2-0.4-0.2-0.9-0.2-1.3s0.2-0.9,0.4-1.2c0.2-0.4,0.6-0.7,1-0.9c0.4-0.2,0.8-0.3,1.3-0.2
			c0.8,0.1,1.4,0.4,1.8,0.9s0.6,1.2,0.5,2s-0.4,1.4-0.9,1.8s-1.2,0.6-2,0.5c-0.5-0.1-0.9-0.2-1.2-0.5
			C453.3,892.8,453,892.4,452.9,892z M454.4,889.9c-0.3,0.2-0.4,0.5-0.5,0.9s0,0.7,0.3,1c0.2,0.3,0.5,0.5,0.8,0.5c0.4,0,0.8,0,1-0.3
			c0.3-0.2,0.5-0.5,0.5-0.9c0-0.4-0.1-0.7-0.3-1c-0.2-0.3-0.6-0.5-1-0.5C455,889.6,454.7,889.7,454.4,889.9z"/>
		<path fill="#525A7B" d="M456.3,885.4l2.1-1.3l-0.2,1.5l-1.9,1l0,0l1.8,0.2L458,888l-4.7-0.5l0.2-1.8c0.1-0.5,0.2-0.9,0.5-1.1
			c0.3-0.3,0.7-0.4,1.1-0.3c0.3,0,0.6,0.2,0.8,0.4C456.2,884.8,456.3,885.1,456.3,885.4z M454.3,886.4l1.2,0.1l0-0.1
			c0.1-0.6-0.1-0.9-0.5-0.9c-0.4,0-0.6,0.2-0.7,0.8L454.3,886.4z"/>
		<path fill="#525A7B" d="M455,881.5l3.7,0.4l-0.1,1.2l-3.7-0.4l-0.1,1l-1-0.1l0.4-3.3l1,0.1L455,881.5z"/>
		<path fill="#525A7B" d="M454.4,878.8c-0.2-0.4-0.2-0.9-0.2-1.3s0.2-0.9,0.4-1.2c0.2-0.4,0.6-0.7,1-0.9c0.4-0.2,0.8-0.3,1.3-0.2
			c0.8,0.1,1.4,0.4,1.8,0.9c0.4,0.5,0.6,1.2,0.5,2s-0.4,1.4-0.9,1.8c-0.5,0.4-1.2,0.6-2,0.5c-0.5-0.1-0.9-0.2-1.2-0.5
			C454.8,879.6,454.5,879.3,454.4,878.8z M455.9,876.8c-0.3,0.2-0.4,0.5-0.5,0.9c0,0.4,0,0.7,0.3,1c0.2,0.3,0.5,0.5,0.8,0.5
			c0.4,0,0.8,0,1-0.3c0.3-0.2,0.5-0.5,0.5-0.9c0-0.4-0.1-0.7-0.3-1c-0.2-0.3-0.6-0.5-1-0.5C456.5,876.4,456.2,876.5,455.9,876.8z"/>
		<path fill="#525A7B" d="M457.8,872.2l2.1-1.3l-0.2,1.5l-1.9,1l0,0l1.8,0.2l-0.1,1.2l-4.7-0.5l0.2-1.8c0.1-0.5,0.2-0.9,0.5-1.1
			c0.3-0.3,0.7-0.4,1.1-0.3c0.3,0,0.6,0.2,0.8,0.4C457.6,871.6,457.8,871.9,457.8,872.2z M455.8,873.2l1.2,0.1l0-0.1
			c0.1-0.6-0.1-0.9-0.5-0.9c-0.4,0-0.6,0.2-0.7,0.8L455.8,873.2z"/>
		<path fill="#525A7B" d="M457.6,868.1l0.3-2.4c0.4,0.1,0.8,0.1,1,0.2s0.5,0.2,0.8,0.5c0.6,0.5,0.8,1.2,0.7,2.1
			c-0.1,0.7-0.4,1.3-0.9,1.7c-0.5,0.4-1.1,0.6-1.9,0.5c-0.8-0.1-1.4-0.4-1.8-0.9c-0.4-0.5-0.6-1.2-0.5-1.9c0.1-0.5,0.2-0.9,0.5-1.2
			c0.3-0.3,0.6-0.6,1.1-0.7l0.4,1.2c-0.2,0.1-0.4,0.2-0.6,0.3c-0.2,0.2-0.2,0.4-0.3,0.6c0,0.4,0.1,0.7,0.3,0.9s0.6,0.4,1,0.4
			c0.4,0,0.7,0,1.1-0.2s0.5-0.5,0.5-0.9c0-0.3,0-0.5-0.1-0.7c-0.1-0.2-0.3-0.3-0.6-0.4l-0.1,1L457.6,868.1z"/>
		<path fill="#525A7B" d="M457.2,862.3l-0.2,1.5l0.8,0.1l0.2-1.4l1,0.1l-0.2,1.4l0.8,0.1l0.2-1.5l1,0.1l-0.3,2.7l-4.7-0.5l0.3-2.7
			L457.2,862.3z"/>
		<path fill="#525A7B" d="M457.5,859.6l3.7,0.4l-0.1,1.2l-3.7-0.4l-0.1,1l-1-0.1l0.4-3.3l1,0.1L457.5,859.6z"/>
	</g>
	<path fill="#7CC9AD" d="M886.4,585.9l16.4,40.2l6.9,43.4L911,735l11.7,132.6l-27.8,75c0,0-23.4,69.8-21.6,76.6s39.5,15.5,39.5,15.5
		l166.9-163.3V567.9l-168.4,3.2L886.4,585.9z"/>
	<polygon fill="#7CC9AD" points="181.8,752.1 171,783.4 161.3,821.1 117.9,805.8 126.8,781.8 125.4,745.9 	"/>
	<g>
		<path fill="#525A7B" d="M113.5,839.1h-4.6v-11.5h4.3c2.3,0,3.4,1,3.4,3c0,1.1-0.4,1.9-1.3,2.4v0c1.6,0.2,2.4,1.2,2.4,2.9
			c0,0.6-0.1,1.1-0.4,1.5c-0.2,0.4-0.6,0.8-1,1c-0.4,0.2-0.8,0.4-1.3,0.5C114.5,839.1,114,839.1,113.5,839.1z M111.8,829.9v2.2h0.3
			c0.5,0,0.9-0.1,1.2-0.2c0.3-0.2,0.4-0.4,0.4-0.9c0-0.3,0-0.5-0.1-0.6c-0.1-0.2-0.2-0.3-0.4-0.3c-0.2-0.1-0.4-0.1-0.5-0.1
			s-0.4,0-0.6,0H111.8z M111.8,834.4v2.5h0.4c0.2,0,0.4,0,0.5,0c0.1,0,0.3,0,0.5,0s0.4-0.1,0.5-0.1c0.1-0.1,0.3-0.1,0.4-0.2
			c0.2-0.1,0.3-0.2,0.3-0.4s0.1-0.3,0.1-0.5c0-0.2,0-0.3,0-0.4c0-0.1-0.1-0.2-0.2-0.3c-0.1-0.1-0.1-0.2-0.2-0.2
			c-0.1-0.1-0.2-0.1-0.3-0.2c-0.1,0-0.2-0.1-0.3-0.1s-0.2,0-0.4-0.1c-0.2,0-0.3,0-0.4,0s-0.2,0-0.4,0s-0.3,0-0.3,0H111.8z"/>
		<path fill="#525A7B" d="M126.3,837.1h-4.1l-0.8,2h-3.2l4.4-11.5h3.3l4.3,11.5H127L126.3,837.1z M125.5,834.8l-1.2-3.7h0l-1.2,3.7
			H125.5z"/>
		<path fill="#525A7B" d="M131.1,839.1v-11.5h3l5.5,7h0v-7h3v11.5h-3l-5.5-7.1h0v7.1H131.1z"/>
		<path fill="#525A7B" d="M149.2,830.1v9h-3v-9h-2.5v-2.5h7.9v2.5H149.2z"/>
		<path fill="#525A7B" d="M155.4,828c1-0.5,2-0.7,3.1-0.7s2.2,0.2,3.1,0.7c1,0.5,1.8,1.2,2.4,2.1c0.6,0.9,0.9,1.9,0.9,3.1
			c0,1.9-0.6,3.4-1.8,4.6s-2.7,1.8-4.6,1.8s-3.4-0.6-4.6-1.8s-1.8-2.7-1.8-4.6c0-1.1,0.3-2.2,0.9-3.1
			C153.7,829.2,154.5,828.5,155.4,828z M160.8,831c-0.6-0.6-1.4-0.9-2.3-0.9c-0.9,0-1.7,0.3-2.3,0.9c-0.6,0.6-1,1.3-1,2.1
			c0,1,0.3,1.8,0.9,2.5s1.4,1,2.3,1s1.7-0.3,2.3-1s0.9-1.5,0.9-2.5C161.8,832.4,161.5,831.7,160.8,831z"/>
		<path fill="#525A7B" d="M172.3,834.4l3.6,4.7h-3.7l-2.8-4.4h0v4.4h-3v-11.5h4.5c1.2,0,2.2,0.3,2.9,0.9s1.1,1.5,1.1,2.7
			c0,0.8-0.2,1.5-0.7,2.1S173.1,834.3,172.3,834.4z M169.3,829.9v2.9h0.3c1.4,0,2.1-0.5,2.1-1.4s-0.7-1.4-2.1-1.4H169.3z"/>
		<path fill="#525A7B" d="M182.3,832.7h5.9c0,1-0.1,1.8-0.3,2.5c-0.1,0.7-0.5,1.4-0.9,2c-1.1,1.5-2.7,2.3-4.8,2.3
			c-1.8,0-3.3-0.6-4.4-1.7s-1.7-2.6-1.7-4.4c0-1.9,0.6-3.4,1.7-4.5c1.2-1.1,2.7-1.7,4.5-1.7c1.2,0,2.2,0.3,3.1,0.8
			c0.9,0.5,1.6,1.3,2.1,2.4l-2.8,1.2c-0.2-0.6-0.5-1-1-1.3c-0.4-0.3-0.9-0.5-1.5-0.5c-0.9,0-1.7,0.4-2.2,1.1
			c-0.5,0.7-0.8,1.6-0.8,2.5s0.3,1.8,0.8,2.5c0.5,0.7,1.3,1.1,2.2,1.1c0.7,0,1.2-0.2,1.7-0.5s0.7-0.8,0.7-1.5h-2.4V832.7z"/>
		<path fill="#525A7B" d="M196.1,830.1h-3.6v1.9h3.4v2.5h-3.4v2h3.6v2.5h-6.6v-11.5h6.6V830.1z"/>
		<path fill="#525A7B" d="M202.6,830.1v9h-3v-9h-2.5v-2.5h7.9v2.5H202.6z"/>
	</g>
	<g>
		<path fill="#525A7B" d="M944.5,733.3h-6.1V718h5.7c3,0,4.6,1.3,4.6,4c0,1.5-0.6,2.6-1.7,3.1v0c2.1,0.3,3.1,1.6,3.1,3.9
			c0,0.8-0.2,1.4-0.5,2s-0.7,1-1.3,1.3s-1.1,0.6-1.7,0.7C945.9,733.3,945.3,733.3,944.5,733.3z M942.4,721.1v3h0.4
			c0.7,0,1.2-0.1,1.6-0.3c0.4-0.2,0.6-0.6,0.6-1.2c0-0.3-0.1-0.6-0.2-0.8c-0.1-0.2-0.3-0.4-0.6-0.4c-0.3-0.1-0.5-0.1-0.7-0.2
			c-0.2,0-0.5,0-0.8,0H942.4z M942.4,727v3.3h0.5c0.3,0,0.5,0,0.7,0s0.3,0,0.7,0c0.3,0,0.6-0.1,0.7-0.1c0.2-0.1,0.3-0.2,0.5-0.3
			c0.2-0.1,0.4-0.3,0.4-0.5c0.1-0.2,0.1-0.4,0.1-0.7c0-0.2,0-0.4-0.1-0.5c0-0.2-0.1-0.3-0.2-0.4c-0.1-0.1-0.2-0.2-0.3-0.3
			c-0.1-0.1-0.2-0.2-0.4-0.2c-0.2,0-0.3-0.1-0.4-0.1c-0.1,0-0.3-0.1-0.5-0.1c-0.2,0-0.4,0-0.5,0s-0.2,0-0.5,0s-0.4,0-0.4,0H942.4z"
			/>
		<path fill="#525A7B" d="M955.7,718.5c1.3-0.7,2.7-1,4.1-1c1.5,0,2.9,0.3,4.1,1c1.3,0.7,2.3,1.6,3.1,2.8c0.8,1.2,1.2,2.6,1.2,4.1
			c0,2.5-0.8,4.5-2.4,6.1c-1.6,1.6-3.6,2.4-6.1,2.4c-2.5,0-4.5-0.8-6.1-2.4s-2.4-3.6-2.4-6.1c0-1.5,0.4-2.9,1.2-4.1
			C953.4,720.1,954.4,719.1,955.7,718.5z M962.9,722.6c-0.9-0.8-1.9-1.2-3-1.2c-1.2,0-2.2,0.4-3,1.2c-0.9,0.8-1.3,1.8-1.3,2.8
			c0,1.3,0.4,2.4,1.3,3.3c0.8,0.9,1.9,1.3,3.1,1.3c1.2,0,2.2-0.4,3.1-1.3s1.3-2,1.3-3.3C964.2,724.3,963.7,723.4,962.9,722.6z"/>
		<path fill="#525A7B" d="M976.3,721.4v12h-4v-12H969V718h10.6v3.4H976.3z"/>
		<path fill="#525A7B" d="M989.2,730.7h-5.5l-1.1,2.7h-4.2l5.9-15.3h4.4l5.8,15.3h-4.2L989.2,730.7z M988.1,727.6l-1.6-4.9h0
			l-1.6,4.9H988.1z"/>
		<path fill="#525A7B" d="M995.7,733.3V718h4l7.3,9.4h0V718h4v15.3h-4l-7.3-9.4h0v9.4H995.7z"/>
		<path fill="#525A7B" d="M1017.6,718v15.3h-4V718H1017.6z"/>
		<path fill="#525A7B" d="M1030.2,718.9l-1.6,3.1c-0.8-0.7-1.7-1-2.6-1c-0.4,0-0.8,0.1-1.2,0.3c-0.4,0.2-0.5,0.5-0.5,0.9
			c0,0.3,0.1,0.5,0.3,0.7s0.4,0.4,0.6,0.4s0.5,0.2,0.8,0.3l1,0.3c1.2,0.4,2.1,0.9,2.8,1.5s1,1.5,1,2.7c0,1.9-0.5,3.2-1.6,4.1
			c-1.1,1-2.6,1.4-4.4,1.4c-1.9,0-3.7-0.6-5.4-1.7l1.7-3.2c1.2,1.1,2.4,1.6,3.5,1.6c0.5,0,1-0.1,1.4-0.4c0.4-0.3,0.6-0.6,0.6-1.1
			c0-0.7-0.6-1.2-1.9-1.6c0,0-0.2-0.1-0.5-0.1c-0.7-0.2-1.3-0.4-1.7-0.6c-0.4-0.2-0.8-0.4-1.3-0.7c-0.4-0.3-0.7-0.7-0.9-1.2
			c-0.2-0.5-0.3-1.1-0.3-1.8c0-1.5,0.5-2.8,1.5-3.7c1-0.9,2.3-1.4,3.8-1.4c0.8,0,1.6,0.1,2.5,0.3
			C1028.7,718.2,1029.5,718.5,1030.2,718.9z"/>
		<path fill="#525A7B" d="M1036.7,724.3l4.8-6.3h4.9l-6.1,7.3l6.6,8.1h-5.2l-5.1-6.6h0v6.6h-4V718h4L1036.7,724.3L1036.7,724.3z"/>
		<path fill="#525A7B" d="M1057.5,730.7h-5.5l-1.1,2.7h-4.2l5.9-15.3h4.4l5.8,15.3h-4.2L1057.5,730.7z M1056.4,727.6l-1.6-4.9h0
			l-1.6,4.9H1056.4z"/>
		<path fill="#525A7B" d="M933.8,745.8v12h-4v-12h-3.3v-3.4H937v3.4H933.8z"/>
		<path fill="#525A7B" d="M946.4,751.5l4.8,6.3h-5l-3.8-5.9h0v5.9h-4v-15.3h6c1.6,0,2.9,0.4,3.9,1.2c1,0.8,1.5,2,1.5,3.5
			c0,1.1-0.3,2-0.9,2.8C948.3,750.8,947.5,751.3,946.4,751.5z M942.5,745.5v3.8h0.4c1.8,0,2.8-0.6,2.8-1.9c0-1.3-0.9-1.9-2.8-1.9
			H942.5z"/>
		<path fill="#525A7B" d="M961.7,755.1h-5.5l-1.1,2.7h-4.2l5.9-15.3h4.4l5.8,15.3h-4.2L961.7,755.1z M954.9,737.8
			c0.4-0.4,0.9-0.6,1.4-0.6s1,0.2,1.4,0.6c0.4,0.4,0.6,0.9,0.6,1.4s-0.2,1-0.6,1.4c-0.4,0.4-0.9,0.6-1.4,0.6s-1-0.2-1.4-0.6
			c-0.4-0.4-0.6-0.9-0.6-1.4S954.5,738.1,954.9,737.8z M960.6,752l-1.6-4.9h0l-1.6,4.9H960.6z M960.1,737.8c0.4-0.4,0.9-0.6,1.4-0.6
			s1,0.2,1.4,0.6c0.4,0.4,0.6,0.9,0.6,1.4s-0.2,1-0.6,1.4c-0.4,0.4-0.9,0.6-1.4,0.6s-1-0.2-1.4-0.6c-0.4-0.4-0.6-0.9-0.6-1.4
			S959.8,738.1,960.1,737.8z"/>
		<path fill="#525A7B" d="M968.2,757.7v-15.3h5.7c2.1,0,4,0.7,5.5,2.2c1.5,1.5,2.3,3.3,2.3,5.4c0,2.1-0.8,4-2.3,5.4
			c-1.5,1.5-3.4,2.2-5.5,2.2H968.2z M972.2,745.8v8.6h0.9c1.3,0,2.3-0.4,3.2-1.1c0.8-0.7,1.2-1.8,1.2-3.2c0-1.3-0.4-2.4-1.2-3.2
			c-0.8-0.8-1.9-1.1-3.2-1.1H972.2z"/>
		<path fill="#525A7B" d="M990.9,749.2h7.9c0,1.3-0.1,2.5-0.3,3.4c-0.2,0.9-0.6,1.8-1.2,2.7c-1.4,2-3.5,3-6.3,3
			c-2.4,0-4.4-0.7-5.9-2.2c-1.5-1.5-2.3-3.4-2.3-5.8c0-2.5,0.8-4.5,2.3-6c1.5-1.5,3.5-2.3,6-2.3c1.6,0,3,0.4,4.2,1.1
			c1.2,0.7,2.1,1.8,2.7,3.2l-3.8,1.6c-0.3-0.8-0.7-1.4-1.3-1.8c-0.6-0.4-1.2-0.7-2-0.7c-1.2,0-2.2,0.5-2.9,1.5
			c-0.7,1-1.1,2.1-1.1,3.4c0,1.3,0.4,2.4,1.1,3.4c0.7,1,1.7,1.4,3,1.4c0.9,0,1.6-0.2,2.2-0.7s0.9-1.1,1-2h-3.3V749.2z"/>
		<path fill="#525A7B" d="M1010,755.1h-5.5l-1.1,2.7h-4.2l5.9-15.3h4.4l5.8,15.3h-4.2L1010,755.1z M1007.2,737.2
			c0.9,0,1.6,0.2,2.2,0.6c0.6,0.4,0.9,1,0.9,1.8c0,0.8-0.3,1.4-0.9,1.8c-0.6,0.4-1.3,0.6-2.2,0.6c-0.9,0-1.6-0.2-2.2-0.5
			c-0.6-0.4-0.9-1-0.9-1.8c0-0.8,0.3-1.4,0.9-1.8C1005.6,737.4,1006.3,737.2,1007.2,737.2z M1008.9,752l-1.6-4.9h0l-1.6,4.9H1008.9z
			 M1007.2,738.6c-0.3,0-0.6,0.1-0.8,0.2s-0.4,0.4-0.4,0.7s0.1,0.5,0.4,0.7c0.2,0.1,0.5,0.2,0.8,0.2c0.3,0,0.6-0.1,0.8-0.2
			c0.2-0.1,0.4-0.4,0.4-0.7s-0.1-0.5-0.4-0.7S1007.6,738.6,1007.2,738.6z"/>
		<path fill="#525A7B" d="M1024.4,751.5l4.8,6.3h-5l-3.8-5.9h0v5.9h-4v-15.3h6c1.6,0,2.9,0.4,3.9,1.2c1,0.8,1.5,2,1.5,3.5
			c0,1.1-0.3,2-0.9,2.8C1026.3,750.8,1025.5,751.3,1024.4,751.5z M1020.5,745.5v3.8h0.4c1.8,0,2.8-0.6,2.8-1.9
			c0-1.3-0.9-1.9-2.8-1.9H1020.5z"/>
		<path fill="#525A7B" d="M1030.3,757.7v-15.3h5.7c2.1,0,4,0.7,5.5,2.2c1.5,1.5,2.3,3.3,2.3,5.4c0,2.1-0.8,4-2.3,5.4
			c-1.5,1.5-3.4,2.2-5.5,2.2H1030.3z M1034.3,745.8v8.6h0.9c1.3,0,2.3-0.4,3.2-1.1c0.8-0.7,1.2-1.8,1.2-3.2c0-1.3-0.4-2.4-1.2-3.2
			c-0.8-0.8-1.9-1.1-3.2-1.1H1034.3z"/>
		<path fill="#525A7B" d="M1054.3,745.8h-4.7v2.6h4.5v3.4h-4.5v2.6h4.7v3.4h-8.7v-15.3h8.7V745.8z"/>
		<path fill="#525A7B" d="M1056.8,757.7v-15.3h4l7.3,9.4h0v-9.4h4v15.3h-4l-7.3-9.4h0v9.4H1056.8z"/>
	</g>
	<g>
		<path fill-rule="evenodd" clip-rule="evenodd" fill="#F6CD1C" d="M512.6,607.1c-0.3,0-0.7-0.2-1,0.6c-0.4,1-0.8,3.3-0.9,5
			c-0.1,1.7-0.2,3.9,0,4.9c0.2,1,0.5,0.9,0.9,0.9c0.4,0,0.7,0.1,1.1-0.8c0.4-1,0.7-3.1,0.9-4.8c0.1-1.6,0.2-3.7,0-4.8
			C513.4,607.2,513,607.2,512.6,607.1L512.6,607.1z"/>
		<path fill-rule="evenodd" clip-rule="evenodd" fill="#F6CD1C" d="M515.5,610c-0.3,0-0.7-0.2-0.9,0.3c-0.4,0.5-0.7,1.8-0.7,2.7
			c-0.1,0.9,0,2.1,0.2,2.7c0.2,0.5,0.6,0.5,0.9,0.5c0.4,0,0.7,0.1,1-0.4c0.3-0.5,0.6-1.7,0.7-2.6c0.1-0.9,0-2-0.2-2.6
			C516.2,610,515.9,610,515.5,610L515.5,610z"/>
		<path fill-rule="evenodd" clip-rule="evenodd" fill="#F6CD1C" d="M518.5,611.4c-0.4,0-0.7-0.1-0.9,0.1c-0.3,0.3-0.6,1.1-0.7,1.7
			c-0.1,0.6,0.1,1.3,0.3,1.7c0.2,0.3,0.6,0.3,0.9,0.4c0.4,0,0.7,0.1,1-0.2c0.3-0.3,0.5-1.1,0.6-1.6c0.1-0.5,0-1.3-0.3-1.7
			C519.2,611.5,518.9,611.5,518.5,611.4L518.5,611.4z"/>
		<path fill-rule="evenodd" clip-rule="evenodd" fill="#F6CD1C" d="M471.1,610c0.3,0.1,0.6,0.4,1.1-0.3c0.7-0.8,1.7-2.9,2.4-4.5
			c0.6-1.5,1.3-3.6,1.5-4.7c0.1-1-0.2-1-0.6-1.1c-0.4-0.1-0.6-0.4-1.3,0.4c-0.7,0.9-1.6,2.8-2.3,4.3c-0.6,1.5-1.3,3.5-1.4,4.5
			C470.3,609.8,470.7,609.9,471.1,610L471.1,610z"/>
		<path fill-rule="evenodd" clip-rule="evenodd" fill="#F6CD1C" d="M469.2,606.4c0.3,0.1,0.6,0.3,1,0c0.5-0.4,1.2-1.5,1.5-2.3
			c0.4-0.8,0.6-2,0.6-2.6c0-0.6-0.4-0.6-0.7-0.8c-0.4-0.1-0.7-0.3-1.1,0.1c-0.5,0.4-1.1,1.4-1.4,2.3c-0.3,0.8-0.6,1.9-0.6,2.5
			C468.5,606.1,468.8,606.3,469.2,606.4L469.2,606.4z"/>
		<path fill-rule="evenodd" clip-rule="evenodd" fill="#F6CD1C" d="M466.7,604.1c0.3,0.1,0.6,0.3,0.9,0.1c0.4-0.2,0.9-0.9,1.1-1.4
			c0.2-0.5,0.3-1.3,0.2-1.7c-0.1-0.4-0.4-0.5-0.8-0.6c-0.4-0.1-0.7-0.3-1-0.1c-0.4,0.2-0.8,0.8-1,1.4c-0.2,0.5-0.3,1.2-0.2,1.7
			C466,603.9,466.4,604,466.7,604.1L466.7,604.1z"/>
		<path fill="#F6CD1C" d="M469.4,618.7c4.2,4.7,5.8,9.9,5.8,9.9s21.3-6.8,30.8,7.3c0.1,0.2,0.9-0.2,0.9-0.2l0.7-1.1l3.6-31l-0.4-0.8
			l-0.6-0.8l-29.6-6.8l-1.2,0.3l-0.9,0.9L469.4,618.7L469.4,618.7z"/>
		<polygon fill="#F6CD28" points="490.4,634.9 480.2,633.1 479.9,634.6 490.2,635.8 490.4,634.9 		"/>
		<polygon fill="#F6CD28" points="490.7,633.1 480.7,630.6 480.2,632.3 490.4,634.2 490.7,633.1 		"/>
		<path fill="#FFFFFF" d="M505.7,617.6c4.1-1.6,1.9-8.8,0.5-10.5c-1.4-1.7-21.7-5-25-5.1c-3.3-0.1-5.7,9.6-5,10.9
			c1.3,2.7,26,5.7,27,5.5C504.1,618.3,504.1,618.2,505.7,617.6L505.7,617.6z"/>
		<path fill="#FFFFFF" d="M510,624.8c-29.3,3.5-40.4-9.1-40.4-9.1l0.4-1c16.7,13.9,40.2,8.7,40.2,8.7L510,624.8L510,624.8z"/>
		<path fill="#51587A" d="M504.1,612.9c-2.5-1.3-3.7-0.7-4.7-0.3c-1,0.5-0.5-0.9,0-1.2c0.6-0.3,4-0.9,5,0.4
			C505.4,613.1,504.7,613.2,504.1,612.9L504.1,612.9z"/>
		<path fill="#51587A" d="M485.9,610.1c-2.5-1.3-3.7-0.7-4.7-0.3c-1,0.5-0.5-0.9,0-1.2c0.6-0.3,4-0.9,5,0.4
			C487.2,610.4,486.6,610.5,485.9,610.1L485.9,610.1z"/>
		<polygon fill="#F6CD28" points="489.9,637.2 479.7,635.4 479.3,636.9 489.7,638.1 489.9,637.2 		"/>
		<g>
			<defs>
				<rect id="SVGID_1_" x="400.1" y="595" width="137.1" height="77.3"/>
			</defs>
			<clipPath id="SVGID_2_">
				<use xlink:href="#SVGID_1_"  overflow="visible"/>
			</clipPath>
			<polygon clip-path="url(#SVGID_2_)" fill="#F6CD28" points="489.4,639.6 479.2,637.8 478.8,639.3 489.2,640.5 489.4,639.6 			"/>
			<path clip-path="url(#SVGID_2_)" fill="#B2CCEA" d="M474.7,629.8c26.6-7.3,31.8,9.4,31.8,9.4c11.1-7,20.3-2,27.1,8
				c7.2,10.4,2.9,25.1-6.5,25.1c-11.3,0-113.4-0.8-113.4-0.8s-13.5-7.1-13.6-23.6c-0.1-11,4-24.8,21.2-25.4c0,0,5.5-9.8,20-12.6
				C467.5,604.8,474.7,629.8,474.7,629.8L474.7,629.8z"/>
		</g>
		<g>
			<path fill="#FFFFFF" d="M417.7,643.8c0,0,0.1,0,0.1,0.1c0,0,0.1,0.1,0.1,0.1c0,0,0.1,0.1,0.1,0.2l-0.1,3.8c0.5,0,1,0,1.4,0
				c0.2,0,0.4,0,0.5,0s0.4,0,0.5,0s0.3,0,0.4,0c0.1,0,0.2,0,0.2,0c0.1,0,0.1-0.1,0.1-0.2s0.1-0.4,0.1-0.6s0-0.5,0-0.8
				c0-0.3,0-0.6,0-0.9c0-0.3,0-0.5,0-0.7c0-0.2,0-0.3,0-0.4c0-0.1,0-0.2,0-0.2c0-0.1,0-0.1,0.1-0.1c0,0,0.1-0.1,0.1-0.1h1.4
				c0,0.6,0,1.2,0,1.8c0,0.2,0,0.5,0,0.7c0,0.2,0,0.5,0,0.7c0,0.2,0,0.4,0,0.6c0,0.2,0,0.4,0,0.5c0,0.3-0.1,0.5-0.3,0.6
				s-0.4,0.3-0.6,0.4c-0.2,0.1-0.5,0.2-0.8,0.3c0.2,0.1,0.5,0.3,0.7,0.5c0.2,0.1,0.4,0.3,0.6,0.5c0.2,0.2,0.4,0.4,0.6,0.6
				c0.1,0.1,0.2,0.3,0.3,0.5c0.1,0.3,0.1,0.6,0.1,0.9c0,0.6,0,1.3,0,2c0,0.8-0.1,1.5-0.1,2.3c-0.1,0.8-0.1,1.6-0.2,2.4
				c-0.1,0.8-0.1,1.5-0.2,2.1c-0.1,0.6-0.1,1.1-0.1,1.5c0,0.4-0.1,0.6-0.1,0.7c0,0,0,0.1-0.1,0.1c0,0-0.1,0.1-0.1,0.1
				c-0.1,0-0.1,0-0.2,0.1h-0.7c-0.2,0-0.4,0-0.5,0c-0.2,0-0.3,0-0.4,0c0,0,0,0,0-0.1c0,0,0,0,0-0.1c0.2-2.1,0.4-3.9,0.5-5.6
				c0.1-0.7,0.1-1.4,0.1-2.1c0-0.7,0.1-1.3,0.1-1.9c0-0.6,0-1.1,0-1.5c0-0.4,0-0.7-0.1-0.8c0,0-0.1-0.2-0.3-0.3
				c-0.2-0.2-0.4-0.4-0.6-0.6c-0.3-0.2-0.5-0.5-0.9-0.8l-1.8,0l0.5,13.8h-1.7c-0.1,0-0.1,0-0.1,0s0,0,0,0s0,0,0-0.1
				c-0.1-3.6-0.1-6.8-0.1-9.6c0-0.8,0-1.6,0-2.4c0-0.8,0-1.5,0-2.3c0-0.7,0-1.4,0-2c0-0.6,0-1.2,0-1.6c0-0.5,0-0.8,0-1.1
				c0-0.3,0-0.4,0-0.4c0-0.1,0-0.1,0.1-0.2c0,0,0.1-0.1,0.1-0.1c0.1,0,0.1-0.1,0.2-0.1H417.7z"/>
		</g>
		<g>
			<path fill="#FFFFFF" d="M433.3,644.1l0.1,0.2l1,19.8l-0.1,0.1l-1.5,0l-0.2-0.2l-0.5-13h0l-4.3-0.4l-0.8,13.5l-0.2,0.2l-1.5-0.1
				l-0.1-0.2l1.2-19.6c0.1-0.2,0.2-0.3,0.3-0.3L433.3,644.1z M431.4,645.8l-3.1,0.1v0.1l0.1,0.9v1.8l3.4,0.2l0.2,0.1v-3.1
				L431.4,645.8z"/>
		</g>
		<g>
			<path fill="#FFFFFF" d="M443.7,643.8c0.1,0,0.2,0,0.2,0.1s0.1,0.1,0.1,0.1c0,0.1,0.1,0.1,0.1,0.2l-0.1,2.5c0,0.3,0,0.6-0.1,0.9
				c0,0.3,0,0.6,0,0.8c0,0.2,0,0.4,0,0.6c0,0.2,0,0.2,0,0.3c0,0.1-0.1,0.2-0.1,0.3c0,0-0.1,0.1-0.1,0.1h-0.7
				c0.1,0.1,0.2,0.2,0.2,0.2c0.1,0.1,0.2,0.1,0.2,0.2c0.1,0.1,0.2,0.1,0.3,0.2c0.2,0.1,0.3,0.2,0.3,0.3c0.1,0.1,0.1,0.2,0.2,0.3
				c0,0.1,0.1,0.2,0,0.2c0,2.2,0,4.2,0,6c0,0.8,0,1.5,0,2.2s0,1.4,0,2c0,0.6,0,1.1,0,1.4s0,0.6,0,0.6c0,0.1,0,0.1,0,0.2
				c0,0,0,0.1,0,0.1c0,0-0.1,0.1-0.1,0.1c-0.2,0-0.5,0-0.7,0c-0.2,0-0.4,0-0.5,0s-0.3,0-0.3,0c-0.1,0-0.1,0-0.1-0.1c0,0,0-0.1,0-0.1
				v-12.4l-1.6-1.4h-2.2c0.1,2.5,0.2,4.7,0.3,6.7c0,0.8,0.1,1.7,0.1,2.5c0,0.8,0.1,1.5,0.1,2.2c0,0.6,0,1.2,0.1,1.6
				c0,0.4,0,0.6,0,0.7c0,0.1,0,0.1,0,0.2c0,0-0.1,0.1-0.1,0.1c0,0-0.1,0.1-0.2,0.1H438c-0.2,0-0.4,0-0.5,0c-0.2,0-0.3,0-0.4,0
				c-0.1,0-0.1,0-0.2-0.1c0,0-0.1-0.1-0.1-0.1c0,0,0-0.1,0-0.2l-0.3-19.7H443.7z M442.8,645.3C442.8,645.3,442.8,645.3,442.8,645.3
				l-5.1-0.1c0,0-0.1,0-0.1,0.1l0.1,2.7c0,0.1,0,0.1,0.1,0.1h4.7c0,0,0.1,0,0.1-0.1L442.8,645.3z"/>
		</g>
		<g>
			<path fill="#FFFFFF" d="M454,644.1L454,644.1l0.1,0.1l0.1,2.6l0.1,17.4l-0.1,0.1h-0.1c-1.3-0.1-2-0.2-2-0.3l0.1-17.5l-3.4-0.1
				h-0.8l-0.1,3l0.1,14.8l-0.1,0.1h-1.7l-0.1-0.1l0.2-18.8l0.1-1.1l0.1-0.1L454,644.1z"/>
		</g>
		<g>
			<path fill="#FFFFFF" d="M456.6,644.7l2.6-0.1h5.5l0.1,0.1v1l-0.1,0.5l-2,0.1h-4.4l-0.1,3.4l-0.1,0.5l1.7-0.1h3.5l0.1,0.1v1.1
				c0,0.3-0.1,0.4-0.2,0.5h-5.2l-0.1,9.7l-0.1,0.9h4.6l1.8,0.1l0.1,0.1v1.4c0,0.4-0.1,0.6-0.2,0.6l-7.4-0.1c-0.4,0-0.6-0.1-0.6-0.2
				l0.2-18.7L456.6,644.7z"/>
		</g>
		<g>
			<path fill="#FFFFFF" d="M467,644.3l1.8,0.1c0.2,0.1,0.3,0.2,0.3,0.3l0.7,17.6h1.7l0.3-17.3c0-0.5,0.1-0.7,0.2-0.7
				c1.2,0.1,1.8,0.2,1.8,0.3l-0.5,19.1c0,0.3-0.1,0.5-0.2,0.5c-3.5,0-5.3-0.1-5.3-0.2l-1-19.5L467,644.3L467,644.3z"/>
		</g>
		<g>
			<path fill="#FFFFFF" d="M484.8,643.8l0.1,0.2l1,19.8l-0.1,0.1l-1.5,0l-0.2-0.2l-0.5-13h0l-4.3-0.4l-0.8,13.5l-0.2,0.2l-1.5-0.1
				l-0.1-0.2l1.2-19.6c0.1-0.2,0.2-0.3,0.3-0.3L484.8,643.8z M482.9,645.5l-3.1,0.1v0.1l0.1,0.9v1.8l3.4,0.2l0.2,0.1v-3.1
				L482.9,645.5z"/>
		</g>
		<g>
			<path fill="#FFFFFF" d="M488.1,643.9l1.7-0.3l0,0.1h0.1l0.1,2.2l0.3,15.4l6.3,0.4l0.1,0.2c-0.1,1.3-0.2,1.9-0.3,1.9l-7.8-0.1
				l-0.3-0.1l-0.2-6L488.1,643.9z"/>
		</g>
		<g>
			<path fill="#FFFFFF" d="M499,643.6l2.6-0.1h5.5l0.1,0.1v1l-0.1,0.5l-2,0.1h-4.4l-0.1,3.4l-0.1,0.5l1.7-0.1h3.5l0.1,0.1v1.1
				c0,0.3-0.1,0.4-0.2,0.5h-5.2l-0.1,9.7l-0.1,0.9h4.6l1.8,0.1l0.1,0.1v1.4c0,0.4-0.1,0.6-0.2,0.6l-7.4-0.1c-0.4,0-0.6-0.1-0.6-0.2
				l0.2-18.7L499,643.6z"/>
		</g>
		<g>
			<path fill="#FFFFFF" d="M517.1,643.8L517.1,643.8l0.1,0.1l0.1,2.6l0.1,17.4l-0.1,0.1h-0.1c-1.3-0.1-2-0.2-2-0.3l0.1-17.5
				l-3.4-0.1h-0.8l-0.1,3l0.1,14.8l-0.1,0.1h-1.7l-0.1-0.1l0.2-18.8l0.1-1.1l0.1-0.1L517.1,643.8z"/>
		</g>
		<g>
			<path fill="#FFFFFF" d="M416.1,626.3l1.3-0.3l0,0h0l0.1,1.8l0.2,12.3l5,0.3l0.1,0.1c-0.1,1-0.1,1.5-0.2,1.5l-6.3-0.1l-0.3-0.1
				l-0.1-4.8L416.1,626.3z"/>
		</g>
		<g>
			<path fill="#FFFFFF" d="M424.6,627l1.5,0l0.2,0.1l0,1.7l0,12h0l4.5-0.1l0-13.7l0,0h0c1.1,0.2,1.6,0.3,1.6,0.3v14.8
				c0,0.1-0.2,0.1-0.5,0.1l-7.2,0.1l-0.1-0.4L424.6,627L424.6,627L424.6,627z"/>
		</g>
		<g>
			<path fill="#FFFFFF" d="M440.6,625.9L440.6,625.9L440.6,625.9l0.1,2.2l0,13.9l0,0h0c-1.1-0.1-1.6-0.2-1.6-0.3l0.1-14l-2.7-0.1
				h-0.6l-0.1,2.4l0,11.8l0,0h-1.4l-0.1-0.1l0.1-15l0-0.9l0,0L440.6,625.9z"/>
		</g>
		<g>
			<path fill="#FFFFFF" d="M442.5,625.2l7,1l0,0.7l0.2,14.3l-6.9,0.6l-0.1-0.4L442.5,625.2L442.5,625.2L442.5,625.2z M443.8,626.8
				l0,0.5l0.3,12.7l4.3-0.2l0-0.4l-0.3-12.1H448L443.8,626.8z"/>
		</g>
		<g>
			<path fill="#FFFFFF" d="M457.8,625.7l0.1,0.2l0.8,15.9l0,0l-1.2,0l-0.1-0.1l-0.4-10.4h0l-3.4-0.3l-0.6,10.8l-0.1,0.2l-1.2-0.1
				l-0.1-0.1l1-15.7c0-0.1,0.1-0.2,0.3-0.2L457.8,625.7z M456.3,627l-2.5,0v0l0,0.7v1.4l2.7,0.1l0.1,0V627L456.3,627z"/>
		</g>
		<g>
			<path fill="#FFFFFF" d="M484.3,666.7h-0.4V666h1.2v3.1h-0.8V666.7z"/>
			<path fill="#FFFFFF" d="M486.8,666h0.9l-0.9,1l0,0c0.1-0.1,0.3-0.1,0.4-0.1c0.3,0,0.5,0.1,0.7,0.3c0.2,0.2,0.3,0.5,0.3,0.8
				c0,0.4-0.1,0.6-0.4,0.9c-0.3,0.2-0.6,0.3-0.9,0.3c-0.4,0-0.7-0.1-0.9-0.3c-0.1-0.1-0.2-0.2-0.3-0.4c-0.1-0.2-0.1-0.3-0.1-0.5
				c0-0.4,0.2-0.8,0.5-1.2L486.8,666z M486.6,668.4c0.1,0.1,0.2,0.1,0.4,0.1c0.1,0,0.3,0,0.4-0.1c0.1-0.1,0.1-0.2,0.1-0.4
				c0-0.1,0-0.3-0.1-0.4c-0.1-0.1-0.2-0.1-0.4-0.1c-0.1,0-0.3,0-0.4,0.1c-0.1,0.1-0.1,0.2-0.1,0.4
				C486.4,668.2,486.5,668.3,486.6,668.4z"/>
		</g>
		<g>
			<path fill="#FFFFFF" d="M488.7,667.5h1.2v0.6h-1.2V667.5z"/>
			<path fill="#FFFFFF" d="M490.9,666.7h-0.4V666h1.2v3.1h-0.8V666.7z"/>
		</g>
		<g>
			<path fill="#FFFFFF" d="M492.8,666.1c0.2-0.2,0.5-0.2,0.7-0.2s0.5,0.1,0.7,0.2c0.2,0.2,0.3,0.4,0.3,0.6c0,0.2,0,0.3-0.1,0.4
				s-0.2,0.2-0.3,0.3v0c0.2,0.1,0.3,0.2,0.4,0.3c0.1,0.1,0.2,0.3,0.2,0.5c0,0.2-0.1,0.4-0.2,0.5c-0.1,0.1-0.3,0.3-0.4,0.3
				s-0.4,0.1-0.5,0.1s-0.4,0-0.5-0.1s-0.3-0.2-0.4-0.3c-0.1-0.1-0.2-0.3-0.2-0.5c0-0.2,0.1-0.4,0.2-0.5c0.1-0.1,0.3-0.2,0.4-0.3v0
				c-0.1,0-0.3-0.1-0.3-0.3s-0.1-0.3-0.1-0.4C492.5,666.5,492.6,666.3,492.8,666.1z M493.8,667.9c-0.1-0.1-0.2-0.1-0.3-0.1
				s-0.2,0-0.3,0.1c-0.1,0.1-0.1,0.2-0.1,0.3c0,0.1,0,0.2,0.1,0.3c0.1,0.1,0.2,0.1,0.3,0.1s0.2,0,0.3-0.1c0.1-0.1,0.1-0.2,0.1-0.3
				C493.9,668.1,493.9,668,493.8,667.9z M493.8,666.5c-0.1-0.1-0.1-0.1-0.2-0.1s-0.2,0-0.2,0.1c-0.1,0.1-0.1,0.1-0.1,0.2
				c0,0.1,0,0.2,0.1,0.2c0.1,0.1,0.1,0.1,0.2,0.1s0.2,0,0.2-0.1c0.1-0.1,0.1-0.1,0.1-0.2C493.9,666.7,493.8,666.6,493.8,666.5z"/>
		</g>
		<g>
			<path fill="#FFFFFF" d="M496.3,669.1l0.5-3.1h0.8l0.6,1.6l0.7-1.6h0.8l0.5,3.1h-0.8l-0.2-1.8h0l-0.7,1.8h-0.3l-0.7-1.8h0
				l-0.3,1.8H496.3z"/>
			<path fill="#FFFFFF" d="M502.6,668.5h-1.1l-0.2,0.5h-0.8l1.2-3.1h0.9l1.2,3.1h-0.9L502.6,668.5z M502.4,667.9l-0.3-1h0l-0.3,1
				H502.4z"/>
			<path fill="#FFFFFF" d="M504.9,666h0.8v2.1c0,0.3-0.1,0.6-0.3,0.8c-0.2,0.2-0.4,0.3-0.8,0.3s-0.6-0.2-0.8-0.5l0.5-0.5
				c0.1,0.2,0.2,0.3,0.3,0.3c0,0,0.1,0,0.1,0c0,0,0.1,0,0.1-0.1c0,0,0-0.1,0-0.1c0,0,0-0.1,0-0.1c0,0,0-0.1,0-0.1c0,0,0,0,0-0.1V666
				z"/>
		</g>
		<g>
			<path fill="#FFFFFF" d="M509.1,668.4h1v0.7h-2.5l1.3-1.4c0.2-0.3,0.4-0.5,0.4-0.8c0-0.1,0-0.2-0.1-0.3c-0.1-0.1-0.2-0.1-0.3-0.1
				c-0.1,0-0.2,0-0.2,0.1c-0.1,0.1-0.1,0.2-0.1,0.3c0,0,0,0.1,0,0.1h-0.9c0-0.4,0.1-0.6,0.3-0.9c0.2-0.2,0.5-0.3,0.9-0.3
				c0.3,0,0.6,0.1,0.8,0.3c0.2,0.2,0.3,0.5,0.3,0.8c0,0.2,0,0.4-0.1,0.5c-0.1,0.1-0.2,0.3-0.4,0.5L509.1,668.4z"/>
			<path fill="#FFFFFF" d="M511.1,666c0.2-0.1,0.4-0.1,0.6-0.1c0.2,0,0.4,0,0.6,0.1s0.3,0.2,0.4,0.4c0.1,0.2,0.2,0.3,0.2,0.5
				s0.1,0.4,0.1,0.6c0,0.2,0,0.3,0,0.5c0,0.2-0.1,0.3-0.1,0.5c-0.1,0.1-0.2,0.3-0.3,0.4c-0.1,0.1-0.2,0.2-0.4,0.3s-0.3,0.1-0.5,0.1
				s-0.3,0-0.5-0.1s-0.3-0.1-0.4-0.3c-0.1-0.1-0.2-0.2-0.3-0.4c-0.1-0.1-0.1-0.3-0.1-0.5c0-0.2,0-0.3,0-0.5c0-0.2,0-0.4,0.1-0.6
				s0.1-0.4,0.2-0.5C510.8,666.3,510.9,666.1,511.1,666z M511.9,666.7c-0.1-0.1-0.2-0.1-0.3-0.1s-0.2,0-0.3,0.1
				c-0.1,0.1-0.1,0.2-0.2,0.3c0,0.1-0.1,0.2-0.1,0.3c0,0.1,0,0.2,0,0.3c0,0.1,0,0.2,0,0.3c0,0.1,0,0.2,0.1,0.3
				c0,0.1,0.1,0.2,0.2,0.3c0.1,0.1,0.2,0.1,0.3,0.1s0.2,0,0.3-0.1c0.1-0.1,0.1-0.2,0.2-0.3c0-0.1,0.1-0.2,0.1-0.3c0-0.1,0-0.2,0-0.3
				c0-0.1,0-0.2,0-0.3c0-0.1,0-0.2-0.1-0.3C512,666.8,512,666.8,511.9,666.7z"/>
		</g>
		<g>
			<path fill="#FFFFFF" d="M513.7,666.7h-0.4V666h1.2v3.1h-0.8V666.7z"/>
			<path fill="#FFFFFF" d="M517.3,667.8h0.4v0.6h-0.4v0.6h-0.7v-0.6H515v-0.5l1.2-1.9h1V667.8z M516.5,667.8v-1.2h0l-0.7,1.2H516.5z
				"/>
		</g>
		<polyline fill="#FFFFFF" points="462.7,635.6 462.1,634.2 466.7,634.4 467.5,635 		"/>
	</g>
	<polygon fill="#7CC9AD" points="0,1038 107.9,1147.4 176.9,1196 107.9,1368 0.5,1368 	"/>
	<g>
		<path fill="#525A7B" d="M29.9,1226.9l-1.2,2.3c-0.6-0.5-1.3-0.8-2-0.8c-0.3,0-0.6,0.1-0.9,0.3c-0.3,0.2-0.4,0.4-0.4,0.7
			c0,0.2,0.1,0.4,0.3,0.6c0.2,0.2,0.3,0.3,0.5,0.3c0.1,0.1,0.4,0.1,0.6,0.2l0.8,0.2c0.9,0.3,1.6,0.6,2.1,1.1c0.5,0.5,0.8,1.2,0.8,2
			c0,1.4-0.4,2.5-1.2,3.1c-0.9,0.7-2,1.1-3.3,1.1c-1.5,0-2.8-0.4-4.1-1.3l1.3-2.4c0.9,0.8,1.8,1.2,2.7,1.2c0.4,0,0.7-0.1,1-0.3
			c0.3-0.2,0.4-0.5,0.4-0.9c0-0.5-0.5-0.9-1.5-1.2c0,0-0.2,0-0.4-0.1c-0.6-0.2-1-0.3-1.3-0.4c-0.3-0.1-0.6-0.3-1-0.6
			c-0.3-0.2-0.5-0.5-0.7-0.9c-0.1-0.4-0.2-0.8-0.2-1.4c0-1.2,0.4-2.1,1.1-2.8c0.8-0.7,1.7-1.1,2.9-1.1c0.6,0,1.2,0.1,1.9,0.3
			S29.4,1226.6,29.9,1226.9z"/>
		<path fill="#525A7B" d="M36.4,1228.8v9.1h-3v-9.1h-2.5v-2.6h8v2.6H36.4z"/>
		<path fill="#525A7B" d="M46.2,1235.8h-4.2l-0.8,2h-3.2l4.5-11.6h3.3l4.4,11.6H47L46.2,1235.8z M45.4,1233.5l-1.2-3.7h0l-1.3,3.7
			H45.4z"/>
		<path fill="#525A7B" d="M51.2,1237.9v-11.6h4.3c1.6,0,3,0.6,4.2,1.7s1.7,2.5,1.7,4.1s-0.6,3-1.7,4.1s-2.5,1.7-4.2,1.7H51.2z
			 M54.2,1228.8v6.5h0.7c1,0,1.8-0.3,2.4-0.8c0.6-0.5,0.9-1.4,0.9-2.4c0-1-0.3-1.8-0.9-2.4c-0.6-0.6-1.4-0.9-2.4-0.9H54.2z"/>
		<path fill="#525A7B" d="M70.4,1226.9l-1.2,2.3c-0.6-0.5-1.3-0.8-2-0.8c-0.3,0-0.6,0.1-0.9,0.3c-0.3,0.2-0.4,0.4-0.4,0.7
			c0,0.2,0.1,0.4,0.3,0.6c0.2,0.2,0.3,0.3,0.5,0.3c0.1,0.1,0.4,0.1,0.6,0.2l0.8,0.2c0.9,0.3,1.6,0.6,2.1,1.1c0.5,0.5,0.8,1.2,0.8,2
			c0,1.4-0.4,2.5-1.2,3.1c-0.9,0.7-2,1.1-3.3,1.1c-1.5,0-2.8-0.4-4.1-1.3l1.3-2.4c0.9,0.8,1.8,1.2,2.7,1.2c0.4,0,0.7-0.1,1-0.3
			c0.3-0.2,0.4-0.5,0.4-0.9c0-0.5-0.5-0.9-1.5-1.2c0,0-0.2,0-0.4-0.1c-0.6-0.2-1-0.3-1.3-0.4c-0.3-0.1-0.6-0.3-1-0.6
			c-0.3-0.2-0.5-0.5-0.7-0.9c-0.1-0.4-0.2-0.8-0.2-1.4c0-1.2,0.4-2.1,1.1-2.8c0.8-0.7,1.7-1.1,2.9-1.1c0.6,0,1.2,0.1,1.9,0.3
			S69.9,1226.6,70.4,1226.9z"/>
		<path fill="#525A7B" d="M72.3,1237.9v-11.6h4.6c1.3,0,2.3,0.3,3.1,0.9s1.1,1.6,1.1,2.9c0,2.6-1.4,4-4.1,4h-1.7v3.9H72.3z
			 M75.3,1228.7v2.9h0.5c0.3,0,0.5,0,0.7,0c0.1,0,0.3,0,0.6-0.1c0.2-0.1,0.4-0.1,0.5-0.2c0.1-0.1,0.2-0.2,0.3-0.4s0.1-0.4,0.1-0.7
			c0-0.3,0-0.5-0.1-0.7c-0.1-0.2-0.2-0.3-0.3-0.4c-0.1-0.1-0.3-0.2-0.5-0.2c-0.2,0-0.4-0.1-0.6-0.1c-0.2,0-0.4,0-0.7,0H75.3z"/>
		<path fill="#525A7B" d="M88.5,1235.8h-4.2l-0.8,2h-3.2l4.5-11.6h3.3l4.4,11.6h-3.2L88.5,1235.8z M87.7,1233.5l-1.2-3.7h0l-1.3,3.7
			H87.7z"/>
		<path fill="#525A7B" d="M99.4,1233.1l3.7,4.8h-3.8l-2.9-4.5h0v4.5h-3v-11.6h4.5c1.2,0,2.2,0.3,2.9,0.9s1.1,1.5,1.1,2.7
			c0,0.8-0.2,1.6-0.7,2.2S100.2,1232.9,99.4,1233.1z M96.4,1228.5v2.9h0.3c1.4,0,2.1-0.5,2.1-1.5c0-1-0.7-1.5-2.1-1.5H96.4z"/>
		<path fill="#525A7B" d="M107,1231l3.7-4.8h3.8l-4.6,5.5l5,6.1h-3.9l-3.9-5h0v5h-3v-11.6h3L107,1231L107,1231z"/>
		<path fill="#525A7B" d="M122.2,1228.8h-3.6v1.9h3.4v2.6h-3.4v2h3.6v2.6h-6.6v-11.6h6.6V1228.8z"/>
		<path fill="#525A7B" d="M124.1,1237.9v-11.6h3l5.5,7.1h0v-7.1h3v11.6h-3l-5.5-7.1h0v7.1H124.1z"/>
	</g>
</g>
<g id="Tågets_Väg">
	<polygon fill="#F05340" points="821.4,650.4 824.3,638.9 766.8,644.7 709.9,689.3 650.2,675.6 604.9,656.2 591.2,672.7 
		537.2,657.6 630.8,408.7 628.6,381.4 631.5,353.3 564.6,292.9 466,223.8 403.4,216.6 202.7,373.4 96.9,377 109.1,738.9 
		185.4,751.2 317.1,762 396.9,779.2 406.3,926.7 557.4,973.5 653.1,973.5 637.2,907.3 632.2,854.1 568.2,792.2 544.4,792.2 
		569.6,735.3 560.3,732.5 533.6,792.2 532.9,800.1 563.9,803.7 620.7,857.7 627.2,908.7 638,959.8 560.3,961.3 416.4,916.4 
		405.6,767.7 317.1,750.5 189.7,740.4 123.5,728.9 111.3,500.8 108.4,389.3 205.5,384.2 405.6,226.7 460.6,236.7 558.8,304.4 
		615.7,355.4 614.9,379.9 618.5,408.7 521.4,667.7 597,687.9 608.5,672.7 645.9,687.9 711.4,700.1 771.8,659.1 	"/>
	<g>
		<path fill="#F05340" d="M705.3,623.5H700l-1,2.6h-4.1l5.7-14.8h4.2l5.6,14.8h-4.1L705.3,623.5z M704.3,620.6l-1.6-4.7h0l-1.6,4.7
			H704.3z"/>
		<path fill="#F05340" d="M712.1,611.3l3.6,9l3.6-9h4.2l-6.3,14.8h-3l-6.2-14.8H712.1z"/>
		<path fill="#F05340" d="M732.9,614.6h-4.7v2.5h4.2v3.3h-4.2v5.8h-3.8v-14.8h8.5V614.6z"/>
		<path fill="#F05340" d="M744.1,623.5h-5.3l-1,2.6h-4.1l5.7-14.8h4.2l5.6,14.8h-4.1L744.1,623.5z M737.5,606.8
			c0.4-0.4,0.8-0.6,1.4-0.6c0.5,0,1,0.2,1.4,0.6c0.4,0.4,0.6,0.8,0.6,1.4c0,0.5-0.2,1-0.6,1.4c-0.4,0.4-0.8,0.6-1.4,0.6
			c-0.5,0-1-0.2-1.4-0.6s-0.6-0.8-0.6-1.4C737,607.7,737.2,607.2,737.5,606.8z M743,620.6l-1.6-4.7h0l-1.6,4.7H743z M742.6,606.8
			c0.4-0.4,0.8-0.6,1.4-0.6c0.5,0,1,0.2,1.4,0.6c0.4,0.4,0.6,0.8,0.6,1.4c0,0.5-0.2,1-0.6,1.4c-0.4,0.4-0.8,0.6-1.4,0.6
			c-0.5,0-1-0.2-1.4-0.6s-0.6-0.8-0.6-1.4C742,607.7,742.2,607.2,742.6,606.8z"/>
		<path fill="#F05340" d="M758,620.1l4.7,6.1h-4.8l-3.6-5.7h0v5.7h-3.8v-14.8h5.8c1.5,0,2.8,0.4,3.7,1.1c0.9,0.8,1.4,1.9,1.4,3.4
			c0,1.1-0.3,2-0.9,2.7C759.8,619.4,759,619.9,758,620.1z M754.2,614.3v3.7h0.4c1.8,0,2.7-0.6,2.7-1.8s-0.9-1.8-2.7-1.8H754.2z"/>
		<path fill="#F05340" d="M763.7,626.1v-14.8h5.5c2.1,0,3.8,0.7,5.3,2.2c1.5,1.4,2.2,3.2,2.2,5.3s-0.7,3.8-2.2,5.3
			c-1.5,1.4-3.2,2.2-5.3,2.2H763.7z M767.6,614.6v8.3h0.9c1.2,0,2.2-0.3,3.1-1c0.8-0.7,1.2-1.7,1.2-3.1c0-1.3-0.4-2.3-1.2-3
			s-1.8-1.1-3.1-1.1H767.6z"/>
		<path fill="#F05340" d="M779,616c0.4-0.4,1-0.7,1.6-0.7s1.2,0.2,1.6,0.7c0.4,0.4,0.7,1,0.7,1.6c0,0.6-0.2,1.2-0.7,1.6
			c-0.4,0.5-1,0.7-1.6,0.7s-1.2-0.2-1.6-0.7c-0.4-0.5-0.7-1-0.7-1.6C778.3,617,778.5,616.4,779,616z M779,622.6
			c0.4-0.4,1-0.7,1.6-0.7s1.2,0.2,1.6,0.7c0.4,0.4,0.7,1,0.7,1.6c0,0.6-0.2,1.2-0.7,1.6s-1,0.7-1.6,0.7s-1.2-0.2-1.6-0.7
			s-0.7-1-0.7-1.6C778.3,623.6,778.5,623,779,622.6z"/>
		<path fill="#F05340" d="M801,623.5h-5.3l-1,2.6h-4.1l5.7-14.8h4.2l5.6,14.8H802L801,623.5z M800,620.6l-1.6-4.7h0l-1.6,4.7H800z"
			/>
		<path fill="#F05340" d="M807.3,626.1v-14.8h5.5c2.1,0,3.8,0.7,5.3,2.2c1.5,1.4,2.2,3.2,2.2,5.3s-0.7,3.8-2.2,5.3
			c-1.5,1.4-3.2,2.2-5.3,2.2H807.3z M811.1,614.6v8.3h0.9c1.2,0,2.2-0.3,3.1-1c0.8-0.7,1.2-1.7,1.2-3.1c0-1.3-0.4-2.3-1.2-3
			s-1.8-1.1-3.1-1.1H811.1z"/>
		<path fill="#F05340" d="M830.5,614.6h-4.6v2.5h4.3v3.3h-4.3v2.6h4.6v3.3h-8.4v-14.8h8.4V614.6z"/>
		<path fill="#F05340" d="M836.7,611.3v11.5h4.6v3.3h-8.5v-14.8H836.7z"/>
		<path fill="#F05340" d="M849.7,617.9h7.6c0,1.3-0.1,2.4-0.3,3.3c-0.2,0.9-0.6,1.8-1.2,2.6c-1.4,1.9-3.4,2.9-6.1,2.9
			c-2.3,0-4.2-0.7-5.7-2.2c-1.5-1.4-2.2-3.3-2.2-5.6c0-2.4,0.7-4.3,2.2-5.8c1.5-1.5,3.4-2.2,5.8-2.2c1.5,0,2.9,0.3,4,1
			c1.1,0.7,2,1.7,2.7,3.1l-3.7,1.5c-0.3-0.7-0.7-1.3-1.2-1.7c-0.6-0.4-1.2-0.6-2-0.6c-1.2,0-2.1,0.5-2.8,1.4s-1,2-1,3.3
			s0.4,2.3,1.1,3.2c0.7,0.9,1.7,1.4,2.9,1.4c0.9,0,1.6-0.2,2.1-0.7c0.6-0.4,0.9-1.1,1-1.9h-3.1V617.9z"/>
		<path fill="#F05340" d="M868.2,623.5h-5.3l-1,2.6h-4.1l5.7-14.8h4.2l5.6,14.8h-4.1L868.2,623.5z M867.2,620.6l-1.6-4.7h0l-1.6,4.7
			H867.2z"/>
		<path fill="#F05340" d="M879.2,614.6v11.5h-3.8v-11.5h-3.2v-3.3h10.2v3.3H879.2z"/>
		<path fill="#F05340" d="M891.7,623.5h-5.3l-1,2.6h-4.1l5.7-14.8h4.2l5.6,14.8h-4.1L891.7,623.5z M890.6,620.6l-1.6-4.7h0l-1.6,4.7
			H890.6z"/>
		<path fill="#F05340" d="M897.9,626.1v-14.8h3.8l7.1,9.1h0v-9.1h3.9v14.8h-3.9l-7.1-9.1h0v9.1H897.9z"/>
		<path fill="#F05340" d="M917,622.4h3.4l-3.6,6.5h-2.3L917,622.4z"/>
		<path fill="#F05340" d="M932.7,614.6h-2.1v-3.3h6v14.8h-3.9V614.6z"/>
		<path fill="#F05340" d="M945.9,615.6h-3.6c0.1-1.5,0.7-2.7,1.7-3.6c1-0.9,2.2-1.3,3.8-1.3c1.4,0,2.5,0.4,3.4,1.1
			c0.9,0.8,1.3,1.8,1.3,3.2c0,0.6-0.1,1.2-0.4,1.8s-0.6,1-1.2,1.3c0.7,0.2,1.3,0.7,1.8,1.4c0.4,0.7,0.6,1.5,0.6,2.3
			c0,1-0.3,1.9-0.8,2.7c-0.6,0.8-1.3,1.3-2.1,1.7c-0.9,0.4-1.8,0.5-2.8,0.5c-1.8,0-3.3-0.6-4.4-1.7c-0.5-0.5-0.9-1.1-1.2-1.8
			c-0.3-0.7-0.5-1.3-0.5-2h3.9c0,0.6,0.2,1.1,0.6,1.5c0.4,0.4,0.9,0.6,1.5,0.6s1.1-0.2,1.5-0.6c0.4-0.4,0.6-0.8,0.6-1.4
			c0-0.5-0.2-1-0.6-1.4c-0.4-0.4-0.9-0.6-1.4-0.6c-0.2,0-0.4,0-0.7,0.1V617h0.4c0.5,0,0.9-0.1,1.2-0.4c0.3-0.3,0.5-0.7,0.5-1.2
			c0-0.4-0.1-0.8-0.4-1.1c-0.3-0.3-0.6-0.4-1.1-0.4c-0.5,0-0.9,0.2-1.2,0.5C946,614.7,945.9,615.1,945.9,615.6z"/>
		<path fill="#F05340" d="M956.1,622.6c0.4-0.4,1-0.7,1.6-0.7s1.2,0.2,1.6,0.7c0.4,0.4,0.7,1,0.7,1.6c0,0.6-0.2,1.2-0.7,1.6
			s-1,0.7-1.6,0.7s-1.2-0.2-1.6-0.7s-0.7-1-0.7-1.6C955.5,623.6,955.7,623,956.1,622.6z"/>
		<path fill="#F05340" d="M965,611.4c0.8-0.5,1.8-0.7,2.8-0.7s2,0.2,2.8,0.7s1.5,1.1,2,1.9c0.5,0.8,0.9,1.6,1.1,2.6
			c0.2,0.9,0.4,1.9,0.4,2.9c0,0.8-0.1,1.6-0.2,2.3c-0.2,0.8-0.4,1.5-0.7,2.2c-0.3,0.7-0.7,1.3-1.2,1.8c-0.5,0.5-1.1,0.9-1.8,1.2
			c-0.7,0.3-1.5,0.5-2.3,0.5c-0.9,0-1.6-0.2-2.3-0.5c-0.7-0.3-1.3-0.7-1.8-1.2c-0.5-0.5-0.9-1.1-1.2-1.8c-0.3-0.7-0.6-1.4-0.7-2.2
			c-0.2-0.8-0.2-1.5-0.2-2.3c0-1,0.1-2,0.4-2.9c0.2-0.9,0.6-1.8,1.1-2.6C963.6,612.5,964.2,611.9,965,611.4z M969.1,614.6
			c-0.3-0.3-0.8-0.5-1.2-0.5c-0.5,0-0.9,0.2-1.2,0.5c-0.3,0.3-0.6,0.8-0.8,1.3c-0.2,0.5-0.3,1-0.4,1.5s-0.1,0.9-0.1,1.3
			c0,0.4,0,0.9,0.1,1.3s0.2,1,0.4,1.5c0.2,0.5,0.4,0.9,0.8,1.3c0.3,0.3,0.7,0.5,1.2,0.5c0.5,0,0.9-0.2,1.2-0.5
			c0.3-0.3,0.6-0.8,0.8-1.3c0.2-0.5,0.3-1,0.4-1.5c0.1-0.5,0.1-0.9,0.1-1.3c0-0.4,0-0.9-0.1-1.3c-0.1-0.5-0.2-1-0.4-1.5
			S969.4,615,969.1,614.6z"/>
		<path fill="#F05340" d="M978.5,611.4c0.8-0.5,1.8-0.7,2.8-0.7s2,0.2,2.8,0.7s1.5,1.1,2,1.9c0.5,0.8,0.9,1.6,1.1,2.6
			c0.2,0.9,0.4,1.9,0.4,2.9c0,0.8-0.1,1.6-0.2,2.3c-0.2,0.8-0.4,1.5-0.7,2.2c-0.3,0.7-0.7,1.3-1.2,1.8c-0.5,0.5-1.1,0.9-1.8,1.2
			c-0.7,0.3-1.5,0.5-2.3,0.5c-0.9,0-1.6-0.2-2.3-0.5c-0.7-0.3-1.3-0.7-1.8-1.2c-0.5-0.5-0.9-1.1-1.2-1.8c-0.3-0.7-0.6-1.4-0.7-2.2
			c-0.2-0.8-0.2-1.5-0.2-2.3c0-1,0.1-2,0.4-2.9c0.2-0.9,0.6-1.8,1.1-2.6C977,612.5,977.7,611.9,978.5,611.4z M982.5,614.6
			c-0.3-0.3-0.8-0.5-1.2-0.5c-0.5,0-0.9,0.2-1.2,0.5c-0.3,0.3-0.6,0.8-0.8,1.3c-0.2,0.5-0.3,1-0.4,1.5s-0.1,0.9-0.1,1.3
			c0,0.4,0,0.9,0.1,1.3s0.2,1,0.4,1.5c0.2,0.5,0.4,0.9,0.8,1.3c0.3,0.3,0.7,0.5,1.2,0.5c0.5,0,0.9-0.2,1.2-0.5
			c0.3-0.3,0.6-0.8,0.8-1.3c0.2-0.5,0.3-1,0.4-1.5c0.1-0.5,0.1-0.9,0.1-1.3c0-0.4,0-0.9-0.1-1.3c-0.1-0.5-0.2-1-0.4-1.5
			S982.9,615,982.5,614.6z"/>
	</g>
	<g>
		<path fill="#F05340" d="M705.8,679.2l-2.3,1.5l0.3,1.4l-1.8,1.2l-1.8-8.1l1.8-1.2l6.7,4.9l-1.8,1.2L705.8,679.2z M704.5,678.2
			l-2-1.6l0,0l0.7,2.5L704.5,678.2z"/>
		<path fill="#F05340" d="M709.3,678.5L705,672l2.4-1.6c0.9-0.6,1.9-0.8,2.9-0.6c1.1,0.2,1.9,0.8,2.5,1.7c0.6,0.9,0.8,1.9,0.5,2.9
			c-0.2,1-0.8,1.9-1.7,2.5L709.3,678.5z M707.6,672.3l2.4,3.6l0.4-0.2c0.5-0.4,0.9-0.8,1-1.3c0.2-0.5,0-1.1-0.4-1.7
			c-0.4-0.6-0.8-0.9-1.4-1c-0.5-0.1-1.1,0-1.7,0.4L707.6,672.3z"/>
		<path fill="#F05340" d="M716.1,666.8l-2,1.3l0.7,1.1l1.9-1.2l0.9,1.4l-1.9,1.2l0.7,1.1l2-1.3l0.9,1.4l-3.7,2.4l-4.3-6.5l3.7-2.4
			L716.1,666.8z"/>
		<path fill="#F05340" d="M717.9,663.6l3.3,5l2-1.3l0.9,1.4l-3.7,2.4l-4.3-6.5L717.9,663.6z"/>
		<path fill="#F05340" d="M725.4,662.7l3.3-2.2c0.4,0.6,0.6,1.1,0.8,1.5c0.2,0.4,0.2,0.9,0.2,1.5c0,1.2-0.7,2.3-1.8,3
			c-1,0.7-2.1,0.9-3.1,0.7c-1.1-0.2-1.9-0.8-2.6-1.8c-0.7-1-0.9-2.1-0.7-3.2c0.2-1.1,0.9-1.9,1.9-2.6c0.7-0.4,1.4-0.7,2.1-0.7
			c0.7,0,1.4,0.2,2.1,0.6l-1.2,1.7c-0.3-0.2-0.7-0.4-1-0.4s-0.7,0.1-1,0.3c-0.5,0.3-0.8,0.8-0.8,1.4c0,0.6,0.1,1.2,0.5,1.7
			c0.4,0.5,0.8,0.9,1.4,1.1c0.6,0.2,1.1,0.1,1.7-0.2c0.4-0.2,0.6-0.6,0.7-0.9c0.1-0.4,0.1-0.7-0.1-1.1l-1.4,0.9L725.4,662.7z"/>
		<path fill="#F05340" d="M735.1,659.9l-2.3,1.5l0.3,1.4l-1.8,1.2l-1.8-8.1l1.8-1.2l6.7,4.9l-1.8,1.2L735.1,659.9z M733.8,658.9
			l-2-1.6l0,0l0.7,2.5L733.8,658.9z"/>
		<path fill="#F05340" d="M737.4,652.8l3.3,5l-1.7,1.1l-3.3-5l-1.4,0.9l-0.9-1.4l4.5-2.9l0.9,1.4L737.4,652.8z"/>
		<path fill="#F05340" d="M745.4,653.1l-2.3,1.5l0.3,1.4l-1.8,1.2l-1.8-8.1l1.8-1.2l6.7,4.9l-1.8,1.2L745.4,653.1z M744.1,652.1
			l-2-1.6l0,0l0.7,2.5L744.1,652.1z"/>
		<path fill="#F05340" d="M748.9,652.5l-4.3-6.5l1.7-1.1l5.7,1.9l0,0l-2.6-4l1.7-1.1l4.3,6.5l-1.7,1.1l-5.7-1.9l0,0l2.6,4
			L748.9,652.5z"/>
	</g>
	<g>
		<path fill="#F05340" d="M558.7,518.8l1.5,1.7c-0.6,0.3-1,0.8-1.2,1.4c-0.1,0.3-0.1,0.5-0.1,0.8c0.1,0.3,0.2,0.5,0.5,0.5
			c0.2,0.1,0.3,0,0.5,0c0.2-0.1,0.3-0.2,0.4-0.3c0.1-0.1,0.2-0.2,0.4-0.4l0.4-0.6c0.5-0.6,1-1.1,1.6-1.4c0.5-0.3,1.2-0.3,1.9,0
			c1.1,0.4,1.9,1.1,2.2,1.9c0.3,0.9,0.3,1.9-0.1,3c-0.4,1.2-1.2,2.1-2.3,2.9l-1.6-1.8c0.9-0.5,1.5-1.1,1.8-1.8
			c0.1-0.3,0.1-0.6,0.1-0.9c-0.1-0.3-0.3-0.5-0.6-0.6c-0.4-0.2-0.9,0.1-1.4,0.8c0,0-0.1,0.1-0.2,0.3c-0.3,0.4-0.5,0.7-0.7,0.9
			c-0.2,0.2-0.5,0.4-0.7,0.6c-0.3,0.2-0.6,0.3-0.9,0.3s-0.7-0.1-1.2-0.3c-0.9-0.4-1.6-0.9-1.9-1.8s-0.3-1.7,0-2.7
			c0.2-0.5,0.4-1,0.8-1.4S558.3,519.1,558.7,518.8z"/>
		<path fill="#F05340" d="M568.6,514.2l-1.3,3.4l1.4,1.3l-1,2.6l-8.1-7.1l1-2.7l10.7,0l-1,2.6L568.6,514.2z M566.5,514.2l-3.4-0.1
			l0,0l2.6,2.1L566.5,514.2z"/>
		<path fill="#F05340" d="M571.8,510.8l-9.4-3.5l0.9-2.4l7.4-2.3l0,0l-5.7-2.1l0.9-2.4l9.4,3.5l-0.9,2.4l-7.4,2.3l0,0l5.8,2.2
			L571.8,510.8z"/>
		<path fill="#F05340" d="M575.9,499.9l-9.4-3.5l1.3-3.5c0.5-1.3,1.4-2.3,2.6-2.9c1.3-0.6,2.5-0.6,3.9-0.2s2.2,1.4,2.8,2.6
			c0.6,1.3,0.6,2.6,0.1,3.9L575.9,499.9z M569.5,494.7l5.3,2l0.2-0.5c0.3-0.8,0.3-1.5,0.1-2.2c-0.2-0.7-0.8-1.2-1.7-1.5
			c-0.8-0.3-1.6-0.3-2.2,0c-0.6,0.3-1.1,0.9-1.4,1.7L569.5,494.7z"/>
		<path fill="#F05340" d="M575.8,484l1.8-4.9c0.8,0.3,1.5,0.6,2,1c0.5,0.3,1,0.8,1.4,1.4c0.9,1.3,1,2.9,0.4,4.6
			c-0.6,1.5-1.5,2.5-2.7,3.1c-1.3,0.6-2.6,0.6-4.1,0.1c-1.5-0.6-2.6-1.5-3.1-2.8c-0.6-1.3-0.6-2.7,0-4.2c0.4-1,0.9-1.8,1.6-2.3
			c0.7-0.6,1.6-0.9,2.6-0.9l0.1,2.7c-0.5,0-1,0.1-1.4,0.4c-0.4,0.2-0.7,0.6-0.9,1.1c-0.3,0.8-0.2,1.5,0.2,2.1c0.4,0.7,1,1.1,1.8,1.4
			c0.8,0.3,1.6,0.3,2.3,0.1c0.8-0.2,1.3-0.7,1.6-1.5c0.2-0.5,0.2-1.1,0.1-1.5c-0.1-0.5-0.5-0.8-1-1.1l-0.7,2L575.8,484z"/>
		<path fill="#F05340" d="M583.8,473.6l-1.3,3.4l1.4,1.3l-1,2.6l-8.1-7.1l1-2.7l10.7,0l-1,2.6H583.8z M581.7,473.6l-3.4-0.1l0,0
			l2.6,2.1L581.7,473.6z"/>
		<path fill="#F05340" d="M580.7,464.5l7.3,2.7l-0.9,2.4l-7.3-2.7l-0.8,2l-2.1-0.8l2.4-6.5l2.1,0.8L580.7,464.5z"/>
		<path fill="#F05340" d="M589.4,458.7l-1.3,3.4l1.4,1.3l-1,2.6l-8.1-7.1l1-2.7l10.7,0l-1,2.6L589.4,458.7z M587.3,458.7l-3.4-0.1
			l0,0l2.6,2.1L587.3,458.7z"/>
		<path fill="#F05340" d="M592.5,455.3l-9.4-3.5l0.9-2.4l7.4-2.3l0,0l-5.7-2.1l0.9-2.4l9.4,3.5l-0.9,2.4l-7.4,2.3l0,0l5.8,2.2
			L592.5,455.3z"/>
	</g>
	<g>
		<path fill="#F05340" d="M487.7,227.3l-2.6-1.8l-1.4,0.9l-2-1.4l7.8-5.4l2.1,1.4l-2.2,9.2l-2-1.4L487.7,227.3z M488.1,225.5
			l0.8-2.8l0,0l-2.4,1.8L488.1,225.5z"/>
		<path fill="#F05340" d="M496.8,224.7l-3.9,5.7l2.3,1.6l-1.1,1.6l-4.2-2.8l5-7.3L496.8,224.7z"/>
		<path fill="#F05340" d="M501.5,228l-3.9,5.7l2.3,1.6l-1.1,1.6l-4.2-2.8l5-7.3L501.5,228z"/>
		<path fill="#F05340" d="M504.4,234l2.7,1.9l1.9-2.8l1.9,1.3l-5,7.3l-1.9-1.3l2-3l-2.7-1.9l-2,3l-1.9-1.3l5-7.3l1.9,1.3L504.4,234z
			"/>
		<path fill="#F05340" d="M515.3,239.7l-2.3-1.5l-0.8,1.2l2.1,1.5l-1.1,1.6l-2.1-1.5l-0.9,1.3l2.3,1.5l-1.1,1.6l-4.1-2.8l5-7.3
			l4.1,2.8L515.3,239.7z"/>
		<path fill="#F05340" d="M519.4,240.2l-3.9,5.7l2.3,1.6l-1.1,1.6l-4.2-2.8l5-7.3L519.4,240.2z"/>
		<path fill="#F05340" d="M523.6,247.8l3.8,2.6c-0.4,0.6-0.9,1.1-1.3,1.5c-0.4,0.4-0.9,0.7-1.5,0.9c-1.3,0.5-2.7,0.3-4-0.6
			c-1.1-0.8-1.8-1.8-2.1-3c-0.2-1.2,0-2.4,0.8-3.5c0.8-1.2,1.8-1.9,3-2.1c1.2-0.2,2.4,0.1,3.6,0.9c0.8,0.5,1.3,1.1,1.6,1.9
			c0.3,0.7,0.4,1.5,0.3,2.4l-2.3-0.5c0.1-0.5,0.1-0.9,0-1.3c-0.1-0.4-0.4-0.7-0.8-1c-0.6-0.4-1.2-0.5-1.9-0.3
			c-0.7,0.2-1.2,0.7-1.6,1.3c-0.4,0.6-0.6,1.3-0.6,1.9c0,0.7,0.3,1.2,0.9,1.6c0.4,0.3,0.9,0.4,1.3,0.4s0.8-0.2,1.1-0.6l-1.5-1.1
			L523.6,247.8z"/>
		<path fill="#F05340" d="M532,249.1c0.8,0.1,1.6,0.4,2.3,0.9c0.7,0.5,1.3,1.1,1.7,1.8c0.4,0.7,0.6,1.5,0.6,2.4
			c0,0.8-0.3,1.6-0.8,2.3c-0.8,1.2-1.8,1.9-3.1,2.1c-1.3,0.2-2.5-0.1-3.7-0.9c-1.2-0.8-1.9-1.8-2.1-3.1c-0.2-1.3,0-2.5,0.8-3.7
			c0.5-0.7,1.1-1.2,1.9-1.6C530.4,249.1,531.2,249,532,249.1z M534.1,253.4c-0.1-0.7-0.5-1.2-1.1-1.6c-0.6-0.4-1.2-0.5-1.8-0.4
			c-0.7,0.1-1.2,0.4-1.5,0.9c-0.4,0.6-0.6,1.3-0.5,2c0.1,0.7,0.5,1.2,1,1.6c0.6,0.4,1.2,0.5,1.9,0.4c0.7-0.1,1.2-0.5,1.7-1.1
			C534.1,254.6,534.2,254.1,534.1,253.4z"/>
		<path fill="#F05340" d="M534,260.9l5-7.3l1.9,1.3l0.4,6.8l0,0l3-4.5l1.9,1.3l-5,7.3l-1.9-1.3l-0.4-6.8l0,0l-3.1,4.5L534,260.9z"/>
		<path fill="#F05340" d="M547.9,268.5l-2.6-1.8l-1.4,0.9l-2-1.4l7.8-5.4l2.1,1.4l-2.2,9.2l-2-1.4L547.9,268.5z M548.4,266.7
			l0.8-2.8l0,0l-2.4,1.8L548.4,266.7z"/>
		<path fill="#F05340" d="M558.3,271.2l4.3-1.4l2.3,1.6l-5.3,1.5l0.5,6l-2.5-1.7l-0.3-4.8l0,0l-2.2,3.2l-1.9-1.3l5-7.3l1.9,1.3
			L558.3,271.2L558.3,271.2z"/>
		<path fill="#F05340" d="M565,276.9l-0.1-5.6l2.3,1.6l0,2.9l2.7-1l2.3,1.6l-5.3,2l-2.4,3.5l-1.9-1.3L565,276.9z"/>
		<path fill="#F05340" d="M573.5,283.5l0.2,4.6l-2.4-1.6l0.1-4l0,0l-1.9,2.8l-1.9-1.3l5-7.3l2.8,1.9c0.8,0.5,1.2,1.1,1.5,1.8
			c0.2,0.7,0.1,1.4-0.5,2.2c-0.4,0.5-0.8,0.9-1.3,1.1S574,283.7,573.5,283.5z M573.5,279.3l-1.2,1.8l0.2,0.1c0.9,0.6,1.5,0.6,1.9,0
			c0.4-0.6,0.2-1.2-0.7-1.8L573.5,279.3z"/>
		<path fill="#F05340" d="M579.1,285.4l4.3-1.4l2.3,1.6l-5.3,1.5l0.5,6l-2.5-1.7l-0.3-4.8l0,0l-2.2,3.2l-1.9-1.3l5-7.3l1.9,1.3
			L579.1,285.4L579.1,285.4z"/>
		<path fill="#F05340" d="M588.1,287.5c0.8,0.1,1.6,0.4,2.3,0.9c0.7,0.5,1.3,1.1,1.7,1.8c0.4,0.7,0.6,1.5,0.6,2.4
			c0,0.8-0.3,1.6-0.8,2.3c-0.8,1.2-1.8,1.9-3.1,2.1c-1.3,0.2-2.5-0.1-3.7-0.9c-1.2-0.8-1.9-1.8-2.1-3.1c-0.2-1.3,0-2.5,0.8-3.7
			c0.5-0.7,1.1-1.2,1.9-1.6S587.3,287.4,588.1,287.5z M590.2,291.8c-0.1-0.7-0.5-1.2-1.1-1.6c-0.6-0.4-1.2-0.5-1.8-0.4
			c-0.7,0.1-1.2,0.4-1.5,0.9c-0.4,0.6-0.6,1.3-0.5,2c0.1,0.7,0.5,1.2,1,1.6c0.6,0.4,1.2,0.5,1.9,0.4c0.7-0.1,1.2-0.5,1.7-1.1
			C590.2,293,590.3,292.4,590.2,291.8z"/>
		<path fill="#F05340" d="M596.4,297.6l3.8,2.6c-0.4,0.6-0.9,1.1-1.3,1.5c-0.4,0.4-0.9,0.7-1.5,0.9c-1.3,0.5-2.7,0.3-4-0.6
			c-1.1-0.8-1.8-1.8-2.1-3c-0.2-1.2,0-2.4,0.8-3.5c0.8-1.2,1.8-1.9,3-2.1c1.2-0.2,2.4,0.1,3.6,0.9c0.8,0.5,1.3,1.1,1.6,1.9
			c0.3,0.7,0.4,1.5,0.3,2.4l-2.3-0.5c0.1-0.5,0.1-0.9,0-1.3c-0.1-0.4-0.4-0.7-0.8-1c-0.6-0.4-1.2-0.5-1.9-0.3
			c-0.7,0.2-1.2,0.7-1.6,1.3c-0.4,0.6-0.6,1.3-0.6,1.9c0,0.7,0.3,1.2,0.9,1.6c0.4,0.3,0.9,0.4,1.3,0.4c0.4,0,0.8-0.2,1.1-0.6
			l-1.5-1.1L596.4,297.6z"/>
		<path fill="#F05340" d="M603.6,306.6l-2.6-1.8l-1.4,0.9l-2-1.4l7.8-5.4l2.1,1.4l-2.2,9.2l-2-1.4L603.6,306.6z M604.1,304.8
			l0.8-2.8l0,0l-2.4,1.8L604.1,304.8z"/>
		<path fill="#F05340" d="M612,305.9l-3.9,5.7l-1.9-1.3l3.9-5.7l-1.6-1.1l1.1-1.6l5,3.4l-1.1,1.6L612,305.9z"/>
		<path fill="#F05340" d="M615.2,314.5l-2.6-1.8l-1.4,0.9l-2-1.4l7.8-5.4l2.1,1.4l-2.2,9.2l-2-1.4L615.2,314.5z M615.6,312.7
			l0.8-2.8l0,0l-2.4,1.8L615.6,312.7z"/>
	</g>
	<g>
		<path fill="#F05340" d="M230.9,329.9l0.4,2c-0.6,0-1.1,0.1-1.6,0.5c-0.2,0.1-0.3,0.3-0.4,0.6c-0.1,0.2-0.1,0.4,0.1,0.6
			c0.1,0.1,0.2,0.2,0.4,0.2c0.2,0,0.3,0,0.4,0c0.1,0,0.3-0.1,0.5-0.2l0.6-0.2c0.7-0.3,1.3-0.4,1.8-0.3c0.5,0.1,1,0.4,1.4,0.9
			c0.7,0.8,0.9,1.7,0.7,2.4c-0.2,0.8-0.7,1.6-1.5,2.2c-0.9,0.7-1.9,1-3.1,1.1l-0.3-2.1c0.9,0.1,1.6-0.1,2.2-0.5
			c0.2-0.2,0.4-0.4,0.5-0.7c0.1-0.3,0-0.5-0.1-0.7c-0.2-0.3-0.7-0.3-1.4-0.1c0,0-0.1,0-0.3,0.1c-0.4,0.2-0.7,0.3-1,0.3
			c-0.3,0.1-0.5,0.1-0.8,0.1s-0.6-0.1-0.8-0.2c-0.3-0.2-0.5-0.4-0.8-0.7c-0.5-0.7-0.8-1.4-0.6-2.2s0.5-1.4,1.2-2
			c0.4-0.3,0.8-0.5,1.2-0.7C230,330,230.4,329.9,230.9,329.9z"/>
		<path fill="#F05340" d="M240.5,331.1L238,333l0.5,1.6l-1.9,1.5l-2.7-9.1l2-1.5l8,5l-1.9,1.5L240.5,331.1z M238.9,330.1l-2.5-1.7
			l0,0l1,2.8L238.9,330.1z"/>
		<path fill="#F05340" d="M244.4,330l-5.4-7l1.8-1.4l6.6,1.7l0,0l-3.3-4.3l1.8-1.4l5.4,7l-1.8,1.4l-6.6-1.7l0,0l3.3,4.3L244.4,330z"
			/>
		<path fill="#F05340" d="M251.2,318.2l0-4.6l2.3-1.7l-0.2,5.5l5.9,1.4l-2.4,1.8l-4.7-1.2l0,0l2.3,3l-1.8,1.4l-5.4-7l1.8-1.4
			L251.2,318.2L251.2,318.2z"/>
		<path fill="#F05340" d="M258.2,310.7l4.2,5.5l-1.8,1.4l-4.2-5.5l-1.5,1.2l-1.2-1.5l4.8-3.7l1.2,1.5L258.2,310.7z"/>
		<path fill="#F05340" d="M264.2,303.7l4.2,5.5l2.2-1.7l1.2,1.5l-4,3.1l-5.4-7L264.2,303.7z"/>
		<path fill="#F05340" d="M275.7,304l-2.5,1.9l0.5,1.6l-1.9,1.5l-2.7-9.1l2-1.5l8,5l-1.9,1.5L275.7,304z M274.1,303l-2.5-1.7l0,0
			l1,2.8L274.1,303z"/>
		<path fill="#F05340" d="M278.5,292.7l1.8-1.4l3,3.9c0.4,0.6,0.8,1.1,1,1.5c0.2,0.5,0.3,1,0.2,1.5c-0.1,0.9-0.7,1.8-1.7,2.6
			c-1,0.8-2,1.1-2.9,1c-0.5-0.1-1-0.3-1.4-0.6c-0.4-0.3-0.8-0.8-1.2-1.3l-3-3.9l1.8-1.4l2.8,3.7c0.2,0.2,0.3,0.4,0.4,0.5
			c0.1,0.1,0.3,0.3,0.5,0.4c0.2,0.1,0.4,0.2,0.5,0.3c0.2,0,0.4,0,0.6,0c0.2,0,0.4-0.2,0.7-0.3c0.2-0.2,0.4-0.4,0.5-0.6
			s0.2-0.4,0.1-0.6c0-0.2-0.1-0.4-0.1-0.6c-0.1-0.2-0.2-0.4-0.3-0.6c-0.1-0.2-0.2-0.3-0.4-0.6L278.5,292.7z"/>
		<path fill="#F05340" d="M288.2,291.8l4.4,1.2l-2.3,1.7l-3.8-1.4l0,0l2.1,2.7l-1.8,1.4l-5.4-7l2.7-2.1c0.7-0.6,1.5-0.8,2.2-0.8
			c0.7,0,1.4,0.4,1.9,1.1c0.4,0.5,0.6,1,0.6,1.6C288.8,290.8,288.6,291.3,288.2,291.8z M284.3,290.4l1.3,1.7l0.2-0.1
			c0.8-0.6,1-1.3,0.6-1.8c-0.4-0.6-1.1-0.5-1.9,0.1L284.3,290.4z"/>
		<path fill="#F05340" d="M292.9,284l-2.2,1.7l0.9,1.2l2.1-1.6l1.2,1.5l-2.1,1.6l0.9,1.2l2.2-1.7l1.2,1.5l-4,3.1l-5.4-7l4-3.1
			L292.9,284z"/>
		<path fill="#F05340" d="M298.2,288.6l-5.4-7l1.8-1.4l6.6,1.7l0,0l-3.3-4.3l1.8-1.4l5.4,7l-1.8,1.4l-6.6-1.7l0,0l3.3,4.3
			L298.2,288.6z"/>
		<path fill="#F05340" d="M305,274.7l4.2,5.5l-1.8,1.4l-4.2-5.5l-1.5,1.2l-1.2-1.5l4.8-3.7l1.2,1.5L305,274.7z"/>
		<path fill="#F05340" d="M307.8,270.1l5.4,7l-1.8,1.4l-5.4-7L307.8,270.1z"/>
		<path fill="#F05340" d="M310.8,267.8l5.4,7l-1.8,1.4l-5.4-7L310.8,267.8z"/>
		<path fill="#F05340" d="M317.8,267.4l3.6-2.8c0.5,0.6,0.8,1.2,1,1.7c0.2,0.5,0.4,1,0.4,1.7c0,1.4-0.6,2.6-1.8,3.6
			c-1.1,0.8-2.3,1.2-3.5,1c-1.2-0.2-2.2-0.8-3.1-1.9c-0.9-1.1-1.2-2.3-1.1-3.5c0.2-1.2,0.8-2.3,2-3.1c0.7-0.6,1.5-0.9,2.3-1
			c0.8-0.1,1.6,0.1,2.4,0.5l-1.2,2.1c-0.4-0.2-0.8-0.4-1.2-0.4c-0.4,0-0.8,0.1-1.2,0.4c-0.6,0.4-0.8,1-0.8,1.7
			c0,0.7,0.2,1.3,0.7,1.9c0.4,0.6,1,1,1.7,1.2c0.7,0.2,1.3,0.1,1.9-0.4c0.4-0.3,0.7-0.7,0.8-1.1c0.1-0.4,0-0.8-0.2-1.3l-1.5,1.1
			L317.8,267.4z"/>
		<path fill="#F05340" d="M328.6,263.4l-2.5,1.9l0.5,1.6l-1.9,1.5l-2.7-9.1l2-1.5l8,5l-1.9,1.5L328.6,263.4z M327,262.4l-2.5-1.7
			l0,0l1,2.8L327,262.4z"/>
		<path fill="#F05340" d="M330.5,255.2l4.2,5.5l-1.8,1.4l-4.2-5.5l-1.5,1.2l-1.2-1.5l4.8-3.7l1.2,1.5L330.5,255.2z"/>
		<path fill="#F05340" d="M339.7,254.9l-2.5,1.9l0.5,1.6l-1.9,1.5l-2.7-9.1l2-1.5l8,5l-1.9,1.5L339.7,254.9z M338.1,253.9l-2.5-1.7
			l0,0l1,2.8L338.1,253.9z"/>
		<path fill="#F05340" d="M343.6,253.8l-5.4-7l1.8-1.4l6.6,1.7l0,0l-3.3-4.3l1.8-1.4l5.4,7l-1.8,1.4l-6.6-1.7l0,0l3.3,4.3
			L343.6,253.8z"/>
	</g>
	<g>
		<path fill="#F05340" d="M92.1,600.5l0.2,4.5l-11.1,0.4l-0.1-4.1c-0.1-2.2,0.8-3.3,2.8-3.4c1.1,0,1.9,0.3,2.3,1.1l0,0
			c0.1-1.5,1.1-2.3,2.8-2.4c0.6,0,1.1,0.1,1.5,0.3s0.8,0.5,1,0.9c0.2,0.4,0.4,0.8,0.6,1.2C92,599.4,92,599.9,92.1,600.5z
			 M83.2,602.3l2.2-0.1l0-0.3c0-0.5-0.1-0.8-0.3-1.1c-0.2-0.3-0.4-0.4-0.9-0.4c-0.2,0-0.4,0.1-0.6,0.2c-0.1,0.1-0.3,0.2-0.3,0.4
			c-0.1,0.2-0.1,0.4-0.1,0.5s0,0.4,0,0.6L83.2,602.3z M87.5,602.2l2.4-0.1l0-0.4c0-0.2,0-0.4,0-0.5s0-0.2,0-0.5
			c0-0.2-0.1-0.4-0.1-0.5c-0.1-0.1-0.1-0.2-0.2-0.4c-0.1-0.1-0.2-0.3-0.4-0.3c-0.1-0.1-0.3-0.1-0.5-0.1c-0.1,0-0.3,0-0.4,0.1
			c-0.1,0-0.2,0.1-0.3,0.2c-0.1,0.1-0.1,0.1-0.2,0.2c-0.1,0.1-0.1,0.2-0.1,0.3c0,0.1-0.1,0.2-0.1,0.3s0,0.2,0,0.4c0,0.2,0,0.3,0,0.3
			s0,0.2,0,0.4c0,0.2,0,0.3,0,0.3L87.5,602.2z"/>
		<path fill="#F05340" d="M89.7,588.2l0.1,4l2,0.7l0.1,3.1L80.6,592l-0.1-3.2l11-4.6l0.1,3.1L89.7,588.2z M87.5,589l-3.5,1.3l0,0
			l3.6,1.1L87.5,589z"/>
		<path fill="#F05340" d="M91.5,583.4l-11.1,0.4l-0.1-2.9l6.6-5.5l0,0l-6.8,0.2l-0.1-2.9l11.1-0.4l0.1,2.9l-6.6,5.5l0,0l6.8-0.2
			L91.5,583.4z"/>
		<path fill="#F05340" d="M84.6,565.3l-0.2-5.7c1,0,1.8,0,2.5,0.2c0.7,0.1,1.3,0.4,2,0.8c1.5,1,2.3,2.5,2.3,4.5
			c0.1,1.8-0.4,3.2-1.5,4.3c-1,1.1-2.4,1.7-4.2,1.8c-1.8,0.1-3.3-0.4-4.4-1.5c-1.1-1.1-1.7-2.5-1.8-4.3c0-1.2,0.2-2.2,0.7-3.1
			c0.5-0.9,1.2-1.6,2.3-2.1l1.2,2.7c-0.5,0.2-1,0.6-1.3,1c-0.3,0.4-0.4,0.9-0.4,1.5c0,0.9,0.4,1.6,1.1,2.1c0.7,0.5,1.6,0.7,2.5,0.7
			c0.9,0,1.7-0.3,2.4-0.9s1-1.3,1-2.2c0-0.6-0.2-1.2-0.6-1.6c-0.3-0.4-0.8-0.6-1.5-0.7l0.1,2.4L84.6,565.3z"/>
		<path fill="#F05340" d="M88.4,551.3l0.1,4l2,0.7l0.1,3.1l-11.3-3.9l-0.1-3.2l11-4.6l0.1,3.1L88.4,551.3z M86.2,552.1l-3.5,1.3l0,0
			l3.6,1.1L86.2,552.1z"/>
		<path fill="#F05340" d="M81.3,543.3L90,543l0.1,2.9l-8.7,0.3l0.1,2.4l-2.4,0.1l-0.3-7.7l2.4-0.1L81.3,543.3z"/>
		<path fill="#F05340" d="M87.7,533.7l0.1,4l2,0.7l0.1,3.1l-11.3-3.9l-0.1-3.2l11-4.6l0.1,3.1L87.7,533.7z M85.6,534.5l-3.5,1.3l0,0
			l3.6,1.1L85.6,534.5z"/>
		<path fill="#F05340" d="M89.5,528.9l-11.1,0.4l-0.1-2.9l6.6-5.5l0,0l-6.8,0.2l-0.1-2.9l11.1-0.4l0.1,2.9l-6.6,5.5l0,0l6.8-0.2
			L89.5,528.9z"/>
	</g>
	<g>
		<path fill="#F05340" d="M208.6,724.9l3.9-4.2l3.6,0.4l-4.9,4.8l4.2,6.3l-3.7-0.4l-3.2-5.2l0,0l-0.5,4.8l-2.9-0.3l1.1-11.1l2.9,0.3
			L208.6,724.9L208.6,724.9z"/>
		<path fill="#F05340" d="M220.1,721.5l-0.9,8.6l3.4,0.4l-0.2,2.4l-6.3-0.6l1.1-11.1L220.1,721.5z"/>
		<path fill="#F05340" d="M227,722.5c1-0.4,2-0.5,3.1-0.4c1.1,0.1,2,0.4,2.9,1c0.9,0.6,1.6,1.3,2.1,2.3c0.5,0.9,0.7,2,0.6,3
			c-0.2,1.8-0.9,3.2-2.2,4.2c-1.3,1-2.8,1.4-4.6,1.3c-1.8-0.2-3.2-0.9-4.2-2.2c-1-1.3-1.5-2.8-1.3-4.6c0.1-1.1,0.5-2,1.2-2.9
			C225.2,723.5,226.1,722.9,227,722.5z M231.9,726c-0.6-0.7-1.3-1-2.1-1.1c-0.9-0.1-1.6,0.1-2.3,0.7c-0.7,0.5-1.1,1.2-1.1,1.9
			c-0.1,0.9,0.1,1.8,0.7,2.4c0.5,0.7,1.2,1.1,2.1,1.2s1.6-0.2,2.3-0.7c0.7-0.6,1.1-1.3,1.1-2.3C232.7,727.4,232.5,726.7,231.9,726z"
			/>
		<path fill="#F05340" d="M244.7,724.6l-1.4,2.1c-0.5-0.5-1.1-0.9-1.8-0.9c-0.3,0-0.6,0-0.9,0.2c-0.3,0.1-0.4,0.4-0.5,0.6
			c0,0.2,0,0.4,0.2,0.6c0.1,0.2,0.3,0.3,0.4,0.4s0.3,0.2,0.6,0.3l0.7,0.3c0.8,0.3,1.5,0.8,1.9,1.3s0.6,1.2,0.5,2
			c-0.1,1.3-0.6,2.3-1.4,2.9c-0.9,0.6-2,0.9-3.2,0.7c-1.4-0.1-2.6-0.7-3.8-1.7l1.5-2.2c0.8,0.9,1.6,1.3,2.4,1.4c0.4,0,0.7,0,1-0.2
			c0.3-0.2,0.5-0.4,0.5-0.8c0.1-0.5-0.4-0.9-1.3-1.3c0,0-0.1-0.1-0.3-0.1c-0.5-0.2-0.9-0.4-1.2-0.5s-0.6-0.4-0.9-0.6
			s-0.5-0.6-0.6-0.9c-0.1-0.4-0.1-0.8-0.1-1.3c0.1-1.1,0.6-2,1.3-2.6c0.8-0.6,1.7-0.9,2.8-0.7c0.6,0.1,1.1,0.2,1.8,0.4
			C243.7,724,244.2,724.3,244.7,724.6z"/>
		<path fill="#F05340" d="M250.7,727.1l-0.9,8.6l-2.9-0.3l0.9-8.6l-2.4-0.2l0.2-2.4l7.6,0.8l-0.2,2.4L250.7,727.1z"/>
		<path fill="#F05340" d="M260.4,728.1l-3.4-0.3l-0.2,1.8l3.2,0.3l-0.2,2.4l-3.2-0.3l-0.2,1.9l3.4,0.3l-0.2,2.4l-6.3-0.6l1.1-11.1
			l6.3,0.6L260.4,728.1z"/>
		<path fill="#F05340" d="M267.5,732.9l3,4.9l-3.6-0.4l-2.3-4.5l0,0l-0.4,4.3l-2.9-0.3l1.1-11.1l4.3,0.4c1.2,0.1,2.1,0.5,2.7,1.1
			c0.6,0.6,0.9,1.5,0.8,2.7c-0.1,0.8-0.4,1.5-0.8,2S268.3,732.9,267.5,732.9z M265.1,728.3l-0.3,2.8l0.3,0c1.3,0.1,2-0.3,2.1-1.2
			s-0.5-1.4-1.9-1.6L265.1,728.3z"/>
		<path fill="#F05340" d="M277.3,732.2l5.7,0.6c-0.1,1-0.3,1.8-0.5,2.4c-0.2,0.7-0.6,1.3-1.1,1.8c-1.2,1.3-2.8,1.9-4.8,1.7
			c-1.7-0.2-3.1-0.9-4.1-2.1c-1-1.2-1.4-2.7-1.2-4.4c0.2-1.8,0.9-3.2,2.1-4.2s2.7-1.4,4.5-1.2c1.2,0.1,2.1,0.5,2.9,1.1
			c0.8,0.6,1.4,1.4,1.7,2.5l-2.8,0.9c-0.1-0.6-0.4-1-0.8-1.4c-0.4-0.4-0.9-0.6-1.4-0.6c-0.9-0.1-1.6,0.2-2.2,0.8s-0.9,1.4-1,2.4
			c-0.1,0.9,0.1,1.8,0.5,2.5c0.5,0.7,1.1,1.2,2,1.3c0.6,0.1,1.2,0,1.7-0.3c0.5-0.3,0.7-0.7,0.9-1.4l-2.3-0.2L277.3,732.2z"/>
		<path fill="#F05340" d="M290.7,737.9l-4-0.4l-1,1.8l-3.1-0.3l5.4-10.6l3.1,0.3l3,11.5l-3.1-0.3L290.7,737.9z M290.1,735.6
			l-0.8-3.6l0,0l-1.5,3.4L290.1,735.6z"/>
		<path fill="#F05340" d="M299.5,732l-0.9,8.6l-2.9-0.3l0.9-8.6l-2.4-0.2l0.2-2.4l7.6,0.8l-0.2,2.4L299.5,732z"/>
		<path fill="#F05340" d="M308.2,739.7l-4-0.4l-1,1.8l-3.1-0.3l5.4-10.6l3.1,0.3l3,11.5l-3.1-0.3L308.2,739.7z M307.6,737.4
			l-0.8-3.6l0,0l-1.5,3.4L307.6,737.4z"/>
		<path fill="#F05340" d="M312.7,742.1l1.1-11.1l2.9,0.3l4.6,7.3l0,0l0.7-6.8l2.9,0.3l-1.1,11.1l-2.9-0.3l-4.6-7.3l0,0l-0.7,6.8
			L312.7,742.1z"/>
	</g>
	<g>
		<path fill="#F05340" d="M386.1,906.8l-4.7-3.4l-0.1-3.6l5.4,4.3l5.7-5l0.1,3.7l-4.7,3.9l0,0l4.8-0.1l0.1,2.9l-11.1,0.3l-0.1-2.9
			L386.1,906.8L386.1,906.8z"/>
		<path fill="#F05340" d="M387,895.7l-5.7,4.2l-0.1-3.5l3-2.2l-3.1-2l-0.1-3.5l5.9,4l5.3-0.1l0.1,2.9L387,895.7z"/>
		<path fill="#F05340" d="M387.4,882.2l4.5-3.6l0.1,3.6l-4.2,2.8l0,0l4.3-0.1l0.1,2.9l-11.1,0.3l-0.1-4.3c0-1.2,0.2-2.1,0.8-2.8
			c0.6-0.7,1.4-1.1,2.5-1.1c0.8,0,1.5,0.2,2.1,0.6C386.9,880.9,387.3,881.5,387.4,882.2z M383.1,885.2l2.8-0.1l0-0.3
			c0-1.3-0.5-2-1.4-2s-1.4,0.7-1.3,2L383.1,885.2z"/>
		<path fill="#F05340" d="M385.3,875.1l-4.7-3.4l-0.1-3.6l5.4,4.3l5.7-5l0.1,3.7L387,875l0,0l4.8-0.1l0.1,2.9l-11.1,0.3l-0.1-2.9
			L385.3,875.1L385.3,875.1z"/>
		<path fill="#F05340" d="M380.8,864.3c-0.5-0.9-0.8-1.9-0.8-3c0-1.1,0.2-2.1,0.6-3c0.5-0.9,1.1-1.7,2-2.3c0.9-0.6,1.9-0.9,2.9-0.9
			c1.8,0,3.3,0.5,4.5,1.6c1.2,1.1,1.8,2.6,1.8,4.4c0,1.8-0.5,3.3-1.6,4.5c-1.1,1.2-2.6,1.8-4.4,1.8c-1.1,0-2.1-0.2-3-0.8
			C382,866,381.3,865.3,380.8,864.3z M383.6,859c-0.6,0.6-0.9,1.4-0.8,2.2c0,0.9,0.3,1.6,0.9,2.2c0.6,0.6,1.3,0.9,2.1,0.9
			c0.9,0,1.7-0.3,2.3-1c0.6-0.6,0.9-1.4,0.9-2.2c0-0.9-0.4-1.6-1-2.2c-0.6-0.6-1.4-0.9-2.4-0.9C384.8,858.1,384.2,858.4,383.6,859z"
			/>
		<path fill="#F05340" d="M384.9,848.4l-0.1-5.7c1,0,1.8,0.1,2.5,0.2c0.7,0.1,1.3,0.4,2,0.8c1.5,1,2.2,2.5,2.3,4.5
			c0,1.8-0.5,3.2-1.5,4.3c-1.1,1.1-2.5,1.7-4.2,1.8c-1.8,0-3.3-0.5-4.4-1.6s-1.7-2.5-1.8-4.3c0-1.2,0.2-2.2,0.7-3
			c0.5-0.9,1.3-1.6,2.3-2l1.2,2.7c-0.5,0.2-1,0.5-1.3,1c-0.3,0.4-0.4,0.9-0.4,1.5c0,0.9,0.4,1.6,1.1,2.1c0.7,0.5,1.5,0.7,2.5,0.7
			c0.9,0,1.7-0.3,2.4-0.9c0.7-0.5,1-1.3,1-2.2c0-0.6-0.2-1.2-0.5-1.6c-0.3-0.4-0.8-0.6-1.4-0.7l0.1,2.4L384.9,848.4z"/>
		<path fill="#F05340" d="M388.8,834.4l0.1,4l2,0.7l0.1,3.1l-11.2-4l-0.1-3.2l11-4.5l0.1,3.1L388.8,834.4z M386.6,835.2l-3.5,1.3
			l0,0l3.6,1.1L386.6,835.2z"/>
		<path fill="#F05340" d="M381.9,826.3l8.7-0.2l0.1,2.9l-8.7,0.2l0.1,2.4l-2.4,0.1l-0.2-7.7l2.4-0.1L381.9,826.3z"/>
		<path fill="#F05340" d="M388.4,816.8l0.1,4l2,0.7l0.1,3.1l-11.2-4l-0.1-3.2l11-4.5l0.1,3.1L388.4,816.8z M386.2,817.6l-3.5,1.3
			l0,0l3.6,1.1L386.2,817.6z"/>
		<path fill="#F05340" d="M390.2,812l-11.1,0.3l-0.1-2.9l6.7-5.5l0,0l-6.8,0.2l-0.1-2.9l11.1-0.3l0.1,2.9l-6.7,5.5l0,0l6.8-0.2
			L390.2,812z"/>
	</g>
	<g>
		<path fill="#F05340" d="M442.4,916.3l-4.3-1.2l3.1-10.7l4,1.1c2.1,0.6,2.9,1.8,2.4,3.7c-0.3,1.1-0.9,1.7-1.8,1.8l0,0
			c1.4,0.6,1.9,1.7,1.4,3.4c-0.2,0.5-0.4,1-0.7,1.3c-0.3,0.3-0.7,0.6-1.2,0.7c-0.4,0.1-0.9,0.2-1.4,0.1
			C443.5,916.5,443,916.4,442.4,916.3z M442.2,911.4l-0.7,2.3l0.4,0.1c0.2,0.1,0.4,0.1,0.5,0.1c0.1,0,0.2,0.1,0.5,0.1s0.4,0.1,0.5,0
			s0.3,0,0.4-0.1c0.2,0,0.3-0.1,0.4-0.2c0.1-0.1,0.2-0.3,0.2-0.5c0-0.1,0.1-0.3,0.1-0.4c0-0.1,0-0.2-0.1-0.3c0-0.1-0.1-0.2-0.1-0.3
			c0-0.1-0.1-0.2-0.2-0.2c-0.1-0.1-0.2-0.1-0.3-0.2c-0.1,0-0.2-0.1-0.3-0.1c-0.2-0.1-0.3-0.1-0.3-0.1c-0.1,0-0.2,0-0.3-0.1
			c-0.2-0.1-0.3-0.1-0.3-0.1L442.2,911.4z M443.4,907.3l-0.6,2.1l0.3,0.1c0.5,0.1,0.8,0.2,1.2,0.1c0.3-0.1,0.5-0.3,0.6-0.7
			c0.1-0.2,0.1-0.4,0-0.6c0-0.2-0.2-0.3-0.3-0.4c-0.2-0.1-0.3-0.2-0.5-0.3c-0.1-0.1-0.3-0.1-0.6-0.2L443.4,907.3z"/>
		<path fill="#F05340" d="M453.2,908.2c1-0.2,2.1-0.2,3.1,0.1c1,0.3,1.9,0.8,2.7,1.5c0.8,0.7,1.3,1.6,1.6,2.6c0.3,1,0.3,2,0,3.1
			c-0.5,1.7-1.5,3-2.9,3.8c-1.4,0.8-3,0.9-4.7,0.4c-1.7-0.5-3-1.5-3.8-2.9c-0.8-1.4-0.9-3-0.4-4.7c0.3-1,0.9-1.9,1.7-2.6
			C451.3,908.8,452.2,908.4,453.2,908.2z M457.4,912.5c-0.4-0.7-1.1-1.2-1.9-1.5c-0.8-0.2-1.6-0.2-2.4,0.2c-0.8,0.4-1.2,1-1.5,1.7
			c-0.3,0.9-0.2,1.8,0.2,2.5c0.4,0.8,1,1.3,1.9,1.5c0.8,0.2,1.6,0.1,2.4-0.3c0.8-0.4,1.3-1.1,1.5-2C458,914,457.9,913.2,457.4,912.5
			z"/>
		<path fill="#F05340" d="M467,914.3l-2.4,8.3l-2.8-0.8l2.4-8.3l-2.3-0.7l0.7-2.4l7.4,2.1l-0.7,2.4L467,914.3z"/>
		<path fill="#F05340" d="M477.5,914.8l2.8,0.8l-1.7,6c-0.3,0.9-0.5,1.6-0.8,2.1c-0.3,0.6-0.8,1-1.4,1.3c-1,0.6-2.3,0.6-3.9,0.2
			c-1.6-0.5-2.6-1.2-3.2-2.2c-0.3-0.6-0.5-1.2-0.5-1.8c0-0.6,0.2-1.4,0.4-2.2l1.7-6l2.8,0.8l-1.6,5.6c-0.1,0.3-0.2,0.6-0.2,0.9
			c-0.1,0.2-0.1,0.5-0.1,0.8c0,0.3,0,0.6,0.1,0.8c0.1,0.2,0.2,0.4,0.4,0.6c0.2,0.2,0.5,0.3,0.8,0.4c0.3,0.1,0.6,0.1,0.9,0.1
			c0.3,0,0.5-0.1,0.7-0.3c0.2-0.1,0.3-0.3,0.5-0.6c0.2-0.3,0.3-0.5,0.3-0.7c0.1-0.2,0.2-0.5,0.3-0.8L477.5,914.8z"/>
		<path fill="#F05340" d="M484.8,916.9l-2.4,8.3l3.3,1l-0.7,2.4l-6.1-1.8l3.1-10.7L484.8,916.9z"/>
		<path fill="#F05340" d="M494.5,922.3l-3.4-1l-0.5,1.8l3,0.9l-0.7,2.4l-3-0.9l-1.2,4.2l-2.8-0.8l3.1-10.7l6.1,1.8L494.5,922.3z"/>
		<path fill="#F05340" d="M503.5,923l-1.7,1.8c-0.4-0.6-1-1-1.6-1.2c-0.3-0.1-0.6-0.1-0.9,0c-0.3,0.1-0.5,0.3-0.6,0.5
			c-0.1,0.2,0,0.4,0.1,0.6c0.1,0.2,0.2,0.3,0.3,0.4c0.1,0.1,0.3,0.2,0.5,0.4l0.6,0.4c0.8,0.5,1.3,1,1.6,1.6c0.3,0.6,0.4,1.3,0.2,2.1
			c-0.4,1.3-1,2.1-1.9,2.6c-1,0.4-2.1,0.5-3.3,0.1c-1.3-0.4-2.5-1.2-3.4-2.3l1.8-1.9c0.6,1,1.3,1.6,2.1,1.8c0.4,0.1,0.7,0.1,1,0
			c0.3-0.1,0.5-0.3,0.6-0.7c0.1-0.5-0.2-1-1-1.5c0,0-0.1-0.1-0.3-0.2c-0.5-0.3-0.8-0.5-1.1-0.7c-0.3-0.2-0.5-0.5-0.7-0.8
			c-0.2-0.3-0.4-0.6-0.4-1c0-0.4,0-0.8,0.2-1.3c0.3-1.1,0.9-1.8,1.8-2.3c0.9-0.5,1.9-0.5,2.9-0.2c0.5,0.2,1.1,0.4,1.7,0.7
			S503.1,922.6,503.5,923z"/>
		<path fill="#F05340" d="M509.2,929.1l5.5,1.6c-0.3,0.9-0.6,1.7-0.9,2.3c-0.3,0.6-0.8,1.1-1.4,1.6c-1.4,1.1-3.1,1.4-5,0.8
			c-1.7-0.5-2.9-1.4-3.7-2.8c-0.8-1.3-0.9-2.9-0.4-4.5c0.5-1.7,1.4-3,2.8-3.7c1.4-0.7,2.9-0.9,4.7-0.4c1.1,0.3,2,0.9,2.7,1.6
			c0.7,0.7,1.1,1.7,1.3,2.8l-3,0.3c0-0.6-0.2-1.1-0.5-1.5c-0.3-0.4-0.7-0.7-1.3-0.9c-0.9-0.2-1.6-0.1-2.3,0.4
			c-0.7,0.5-1.2,1.2-1.4,2.1c-0.3,0.9-0.2,1.7,0.1,2.6c0.3,0.8,0.9,1.4,1.8,1.6c0.6,0.2,1.2,0.2,1.7,0s0.9-0.6,1.1-1.2l-2.3-0.7
			L509.2,929.1z"/>
		<path fill="#F05340" d="M521.4,937.1l-3.8-1.1l-1.3,1.6l-2.9-0.9l7.2-9.5l3,0.9l0.9,11.9l-3-0.9L521.4,937.1z M521.2,934.7
			l-0.2-3.7l0,0l-2.1,3.1L521.2,934.7z"/>
		<path fill="#F05340" d="M531.2,932.9l-2.4,8.3l-2.8-0.8l2.4-8.3l-2.3-0.7l0.7-2.4l7.4,2.1l-0.7,2.4L531.2,932.9z"/>
		<path fill="#F05340" d="M538.3,941.9l-3.8-1.1l-1.3,1.6l-2.9-0.9l7.2-9.5l3,0.9l0.9,11.9l-3-0.9L538.3,941.9z M538.2,939.6
			l-0.2-3.7l0,0l-2.1,3.1L538.2,939.6z"/>
		<path fill="#F05340" d="M542.3,945.1l3.1-10.7l2.8,0.8l3.2,8l0,0l1.9-6.5l2.8,0.8l-3.1,10.7l-2.8-0.8l-3.2-8l0,0l-1.9,6.5
			L542.3,945.1z"/>
	</g>
	<g>
		<path fill="#F05340" d="M617,945.2l-3.6-2l-0.3-2.5l4.2,2.6l3.7-4l0.4,2.7l-3.1,3.1l0,0l3.4-0.5l0.3,2.1l-7.9,1.1l-0.3-2.1
			L617,945.2L617,945.2z"/>
		<path fill="#F05340" d="M612.6,937.7l7.9-1.1l0.3,2.1l-7.9,1.1L612.6,937.7z"/>
		<path fill="#F05340" d="M612.2,934.3l6.2-0.8L618,931l1.7-0.2l0.6,4.5l-7.9,1.1L612.2,934.3z"/>
		<path fill="#F05340" d="M611.5,929.1l6.2-0.8l-0.3-2.5l1.7-0.2l0.6,4.5l-7.9,1.1L611.5,929.1z"/>
		<path fill="#F05340" d="M610.8,923.9l7.9-1.1l0.3,2.1L611,926L610.8,923.9z"/>
		<path fill="#F05340" d="M616.4,916.8l0.4,2.8l1.4,0.4l0.3,2.2l-8.3-2l-0.3-2.2l7.5-4.1l0.3,2.2L616.4,916.8z M614.9,917.6
			l-2.4,1.2l0,0l2.6,0.5L614.9,917.6z"/>
		<path fill="#F05340" d="M617.4,913.3l-7.9,1.1l-0.3-2.1l4.3-4.4l0,0l-4.8,0.7l-0.3-2.1l7.9-1.1l0.3,2.1l-4.3,4.4l0,0l4.8-0.7
			L617.4,913.3z"/>
		<path fill="#F05340" d="M607.9,899.9l1.7,0.6c-0.3,0.5-0.4,0.9-0.3,1.4c0,0.2,0.1,0.4,0.3,0.6s0.3,0.2,0.5,0.2
			c0.1,0,0.3-0.1,0.4-0.2c0.1-0.1,0.2-0.2,0.2-0.4c0-0.1,0.1-0.3,0.1-0.4l0.1-0.5c0.1-0.6,0.3-1.2,0.6-1.5c0.3-0.4,0.7-0.6,1.3-0.7
			c1-0.1,1.7,0,2.2,0.5c0.6,0.5,0.9,1.2,1.1,2.1c0.1,1,0,2-0.5,2.9l-1.8-0.7c0.5-0.7,0.6-1.3,0.6-1.9c0-0.3-0.1-0.5-0.3-0.7
			c-0.2-0.2-0.4-0.3-0.6-0.2c-0.4,0-0.6,0.4-0.7,1.1c0,0,0,0.1,0,0.3c-0.1,0.4-0.1,0.7-0.2,0.9c-0.1,0.2-0.2,0.5-0.3,0.7
			s-0.3,0.4-0.6,0.5c-0.2,0.1-0.5,0.2-0.9,0.3c-0.8,0.1-1.5-0.1-2-0.5c-0.6-0.4-0.9-1.1-1-1.9c-0.1-0.4-0.1-0.8,0-1.3
			C607.7,900.7,607.8,900.3,607.9,899.9z"/>
		<path fill="#F05340" d="M610.3,894.4l-0.6-4.1c0.7-0.1,1.3-0.1,1.8-0.1c0.5,0,1,0.2,1.5,0.4c1.1,0.6,1.8,1.6,2,3
			c0.2,1.2-0.1,2.3-0.7,3.2c-0.7,0.9-1.6,1.4-2.9,1.6c-1.3,0.2-2.4-0.1-3.3-0.8c-0.9-0.7-1.4-1.7-1.6-2.9c-0.1-0.8,0-1.6,0.3-2.2
			c0.3-0.7,0.8-1.2,1.5-1.6l1.1,1.8c-0.4,0.2-0.6,0.5-0.8,0.8c-0.2,0.3-0.2,0.7-0.2,1.1c0.1,0.6,0.4,1.1,1,1.4
			c0.6,0.3,1.2,0.4,1.8,0.3c0.7-0.1,1.2-0.4,1.7-0.8s0.6-1,0.5-1.6c-0.1-0.5-0.2-0.8-0.5-1.1c-0.3-0.3-0.6-0.4-1.1-0.4l0.2,1.7
			L610.3,894.4z"/>
		<path fill="#F05340" d="M612,884.1l0.4,2.8l1.4,0.4l0.3,2.2l-8.3-2l-0.3-2.2l7.5-4.1l0.3,2.2L612,884.1z M610.5,884.9l-2.4,1.2
			l0,0l2.6,0.5L610.5,884.9z"/>
		<path fill="#F05340" d="M606.4,878.9l6.2-0.8l0.3,2.1l-6.2,0.8l0.2,1.7l-1.7,0.2l-0.7-5.5l1.7-0.2L606.4,878.9z"/>
		<path fill="#F05340" d="M610.2,871.6l0.4,2.8l1.4,0.4l0.3,2.2l-8.3-2l-0.3-2.2l7.5-4.1l0.3,2.2L610.2,871.6z M608.7,872.4
			l-2.4,1.2l0,0l2.6,0.5L608.7,872.4z"/>
		<path fill="#F05340" d="M611.2,868.1l-7.9,1.1l-0.3-2.1l4.3-4.4l0,0l-4.8,0.7l-0.3-2.1l7.9-1.1l0.3,2.1l-4.3,4.4l0,0l4.8-0.7
			L611.2,868.1z"/>
	</g>
	<g>
		<path fill="#F05340" d="M578.2,765.1h-5.3l-1,2.6h-4.1l5.7-14.8h4.2l5.6,14.8h-4.1L578.2,765.1z M577.2,762.2l-1.6-4.7h0l-1.6,4.7
			H577.2z"/>
		<path fill="#F05340" d="M585,752.9l3.6,9l3.6-9h4.2l-6.3,14.8h-3l-6.2-14.8H585z"/>
		<path fill="#F05340" d="M607,753.7l-1.5,3c-0.8-0.7-1.6-1-2.6-1c-0.4,0-0.8,0.1-1.1,0.3c-0.3,0.2-0.5,0.5-0.5,0.9
			c0,0.3,0.1,0.5,0.3,0.7c0.2,0.2,0.4,0.4,0.6,0.4c0.2,0.1,0.4,0.2,0.8,0.3l1,0.3c1.2,0.3,2,0.8,2.7,1.4c0.6,0.6,1,1.5,1,2.6
			c0,1.8-0.5,3.1-1.5,4c-1.1,0.9-2.5,1.4-4.2,1.4c-1.9,0-3.6-0.6-5.2-1.7l1.7-3.1c1.2,1,2.3,1.5,3.4,1.5c0.5,0,0.9-0.1,1.3-0.4
			c0.4-0.3,0.6-0.6,0.6-1.1c0-0.7-0.6-1.2-1.9-1.6c0,0-0.2-0.1-0.5-0.1c-0.7-0.2-1.3-0.4-1.7-0.5s-0.8-0.4-1.2-0.7s-0.7-0.7-0.9-1.2
			s-0.3-1.1-0.3-1.7c0-1.5,0.5-2.7,1.4-3.6s2.2-1.4,3.7-1.4c0.7,0,1.5,0.1,2.4,0.3S606.3,753.4,607,753.7z"/>
		<path fill="#F05340" d="M613.2,752.9v11.5h4.6v3.3h-8.5v-14.8H613.2z"/>
		<path fill="#F05340" d="M628.1,752.9h3.8v8.3c0,1.2-0.1,2.2-0.3,3c-0.2,0.8-0.6,1.5-1.3,2.2c-1.1,1.1-2.8,1.6-4.9,1.6
			s-3.8-0.5-4.9-1.6c-0.7-0.6-1.1-1.4-1.3-2.2c-0.2-0.8-0.3-1.8-0.3-3v-8.3h3.8v7.8c0,0.5,0,0.9,0,1.2c0,0.3,0.1,0.7,0.2,1.1
			c0.1,0.4,0.2,0.7,0.4,0.9s0.4,0.4,0.8,0.6c0.3,0.2,0.7,0.2,1.2,0.2s0.9-0.1,1.2-0.2c0.3-0.2,0.6-0.4,0.8-0.6s0.3-0.5,0.4-0.9
			c0.1-0.4,0.2-0.7,0.2-1.1c0-0.3,0-0.7,0-1.2V752.9z"/>
		<path fill="#F05340" d="M640.3,756.2v11.5h-3.8v-11.5h-3.2v-3.3h10.2v3.3H640.3z"/>
		<path fill="#F05340" d="M644.6,757.6c0.4-0.4,1-0.7,1.6-0.7s1.2,0.2,1.6,0.7c0.4,0.4,0.7,1,0.7,1.6c0,0.6-0.2,1.2-0.7,1.6
			c-0.4,0.5-1,0.7-1.6,0.7s-1.2-0.2-1.6-0.7c-0.4-0.5-0.7-1-0.7-1.6C644,758.6,644.2,758,644.6,757.6z M644.6,764.2
			c0.4-0.4,1-0.7,1.6-0.7s1.2,0.2,1.6,0.7s0.7,1,0.7,1.6c0,0.6-0.2,1.2-0.7,1.6c-0.4,0.5-1,0.7-1.6,0.7s-1.2-0.2-1.6-0.7
			c-0.4-0.5-0.7-1-0.7-1.6C644,765.2,644.2,764.6,644.6,764.2z"/>
		<path fill="#F05340" d="M661.5,759l4.7-6.1h4.8l-5.9,7l6.4,7.8h-5l-5-6.4h0v6.4h-3.8v-14.8h3.8L661.5,759L661.5,759z"/>
		<path fill="#F05340" d="M680.2,761.7l4.7,6.1H680l-3.6-5.7h0v5.7h-3.8v-14.8h5.8c1.5,0,2.8,0.4,3.7,1.1c0.9,0.8,1.4,1.9,1.4,3.4
			c0,1.1-0.3,2-0.9,2.8S681.2,761.5,680.2,761.7z M676.4,755.9v3.7h0.4c1.8,0,2.7-0.6,2.7-1.8c0-1.2-0.9-1.8-2.7-1.8H676.4z"/>
		<path fill="#F05340" d="M694.9,765.1h-5.3l-1,2.6h-4.1l5.7-14.8h4.2l5.6,14.8h-4.1L694.9,765.1z M693.9,762.2l-1.6-4.7h0l-1.6,4.7
			H693.9z"/>
		<path fill="#F05340" d="M709.7,756.2h-4.7v2.5h4.2v3.3h-4.2v5.8h-3.8v-14.8h8.5V756.2z"/>
		<path fill="#F05340" d="M717.7,756.2v11.5h-3.8v-11.5h-3.2v-3.3h10.2v3.3H717.7z"/>
		<path fill="#F05340" d="M732,753.7l-1.5,3c-0.8-0.7-1.6-1-2.6-1c-0.4,0-0.8,0.1-1.1,0.3c-0.3,0.2-0.5,0.5-0.5,0.9
			c0,0.3,0.1,0.5,0.3,0.7c0.2,0.2,0.4,0.4,0.6,0.4c0.2,0.1,0.4,0.2,0.8,0.3l1,0.3c1.2,0.3,2,0.8,2.7,1.4c0.6,0.6,1,1.5,1,2.6
			c0,1.8-0.5,3.1-1.5,4c-1.1,0.9-2.5,1.4-4.2,1.4c-1.9,0-3.6-0.6-5.2-1.7l1.7-3.1c1.2,1,2.3,1.5,3.4,1.5c0.5,0,0.9-0.1,1.3-0.4
			c0.4-0.3,0.6-0.6,0.6-1.1c0-0.7-0.6-1.2-1.9-1.6c0,0-0.2-0.1-0.5-0.1c-0.7-0.2-1.3-0.4-1.7-0.5s-0.8-0.4-1.2-0.7s-0.7-0.7-0.9-1.2
			s-0.3-1.1-0.3-1.7c0-1.5,0.5-2.7,1.4-3.6s2.2-1.4,3.7-1.4c0.7,0,1.5,0.1,2.4,0.3S731.3,753.4,732,753.7z"/>
		<path fill="#F05340" d="M747,756.2v11.5h-3.8v-11.5H740v-3.3h10.2v3.3H747z"/>
		<path fill="#F05340" d="M755.1,753.4c1.2-0.6,2.6-1,4-1s2.8,0.3,4,1c1.2,0.6,2.3,1.5,3,2.7c0.8,1.2,1.2,2.5,1.2,3.9
			c0,2.4-0.8,4.4-2.3,5.9s-3.5,2.3-5.9,2.3s-4.3-0.8-5.9-2.3c-1.5-1.5-2.3-3.5-2.3-5.9c0-1.5,0.4-2.8,1.2-3.9
			C752.8,754.9,753.8,754,755.1,753.4z M762,757.3c-0.8-0.8-1.8-1.2-2.9-1.2c-1.1,0-2.1,0.4-2.9,1.2c-0.8,0.8-1.2,1.7-1.2,2.7
			c0,1.3,0.4,2.3,1.2,3.2s1.8,1.3,3,1.3s2.2-0.4,3-1.3s1.2-1.9,1.2-3.2C763.2,759,762.8,758.1,762,757.3z"/>
		<path fill="#F05340" d="M776.7,761.7l4.7,6.1h-4.8l-3.6-5.7h0v5.7H769v-14.8h5.8c1.5,0,2.8,0.4,3.7,1.1c0.9,0.8,1.4,1.9,1.4,3.4
			c0,1.1-0.3,2-0.9,2.8S777.7,761.5,776.7,761.7z M772.9,755.9v3.7h0.4c1.8,0,2.7-0.6,2.7-1.8c0-1.2-0.9-1.8-2.7-1.8H772.9z"/>
		<path fill="#F05340" d="M789.5,759.5h7.6c0,1.3-0.1,2.4-0.3,3.3c-0.2,0.9-0.6,1.8-1.2,2.6c-1.4,1.9-3.4,2.9-6.1,2.9
			c-2.3,0-4.2-0.7-5.7-2.2c-1.5-1.4-2.2-3.3-2.2-5.6c0-2.4,0.7-4.3,2.2-5.8c1.5-1.5,3.4-2.2,5.8-2.2c1.5,0,2.9,0.3,4,1
			c1.1,0.7,2,1.7,2.7,3.1l-3.7,1.5c-0.3-0.7-0.7-1.3-1.2-1.7c-0.6-0.4-1.2-0.6-2-0.6c-1.2,0-2.1,0.5-2.8,1.4c-0.7,0.9-1,2-1,3.3
			s0.4,2.3,1.1,3.2s1.7,1.4,2.9,1.4c0.9,0,1.6-0.2,2.1-0.7c0.6-0.4,0.9-1.1,1-1.9h-3.1V759.5z"/>
		<path fill="#F05340" d="M800.7,764h3.4l-3.6,6.5h-2.3L800.7,764z"/>
		<path fill="#F05340" d="M816.4,756.2h-2.1v-3.3h6v14.8h-3.9V756.2z"/>
		<path fill="#F05340" d="M835.7,756.2h-5.1l-0.3,1.7l1.2-0.1c1.5-0.1,2.7,0.3,3.7,1.4c1,1,1.5,2.4,1.5,3.9c0,1.6-0.6,3-1.9,4
			c-1,0.8-2.5,1.2-4.3,1.2c-1.8,0-3.4-0.4-4.8-1.3l0.6-3.6c1.3,1.1,2.6,1.7,4.1,1.7c0.6,0,1.2-0.2,1.6-0.6s0.7-0.9,0.7-1.6
			c0-0.8-0.3-1.5-1-1.9c-0.6-0.4-1.4-0.6-2.3-0.6c-1,0-2,0.2-2.8,0.6l1.3-8h7.7V756.2z"/>
		<path fill="#F05340" d="M839.9,764.2c0.4-0.4,1-0.7,1.6-0.7s1.2,0.2,1.6,0.7s0.7,1,0.7,1.6c0,0.6-0.2,1.2-0.7,1.6
			c-0.4,0.5-1,0.7-1.6,0.7s-1.2-0.2-1.6-0.7c-0.4-0.5-0.7-1-0.7-1.6C839.2,765.2,839.5,764.6,839.9,764.2z"/>
		<path fill="#F05340" d="M848.8,753c0.8-0.5,1.8-0.7,2.8-0.7s2,0.2,2.8,0.7s1.5,1.1,2,1.9c0.5,0.8,0.9,1.6,1.1,2.6
			c0.2,0.9,0.4,1.9,0.4,2.9c0,0.8-0.1,1.6-0.2,2.3c-0.2,0.8-0.4,1.5-0.7,2.2c-0.3,0.7-0.7,1.3-1.2,1.8c-0.5,0.5-1.1,0.9-1.8,1.2
			s-1.5,0.5-2.3,0.5c-0.9,0-1.6-0.2-2.3-0.5s-1.3-0.7-1.8-1.2c-0.5-0.5-0.9-1.1-1.2-1.8c-0.3-0.7-0.6-1.4-0.7-2.2s-0.2-1.5-0.2-2.3
			c0-1,0.1-2,0.4-2.9c0.2-0.9,0.6-1.8,1.1-2.6S848,753.5,848.8,753z M852.8,756.2c-0.3-0.3-0.8-0.5-1.2-0.5c-0.5,0-0.9,0.2-1.2,0.5
			c-0.3,0.3-0.6,0.8-0.8,1.3c-0.2,0.5-0.3,1-0.4,1.5c-0.1,0.5-0.1,0.9-0.1,1.3s0,0.9,0.1,1.3c0.1,0.5,0.2,1,0.4,1.5
			c0.2,0.5,0.4,0.9,0.8,1.3c0.3,0.3,0.7,0.5,1.2,0.5c0.5,0,0.9-0.2,1.2-0.5c0.3-0.3,0.6-0.8,0.8-1.3c0.2-0.5,0.3-1,0.4-1.5
			c0.1-0.5,0.1-0.9,0.1-1.3s0-0.9-0.1-1.3c-0.1-0.5-0.2-1-0.4-1.5S853.2,756.6,852.8,756.2z"/>
		<path fill="#F05340" d="M862.3,753c0.8-0.5,1.8-0.7,2.8-0.7s2,0.2,2.8,0.7s1.5,1.1,2,1.9c0.5,0.8,0.9,1.6,1.1,2.6
			c0.2,0.9,0.4,1.9,0.4,2.9c0,0.8-0.1,1.6-0.2,2.3c-0.2,0.8-0.4,1.5-0.7,2.2c-0.3,0.7-0.7,1.3-1.2,1.8c-0.5,0.5-1.1,0.9-1.8,1.2
			s-1.5,0.5-2.3,0.5c-0.9,0-1.6-0.2-2.3-0.5s-1.3-0.7-1.8-1.2c-0.5-0.5-0.9-1.1-1.2-1.8c-0.3-0.7-0.6-1.4-0.7-2.2s-0.2-1.5-0.2-2.3
			c0-1,0.1-2,0.4-2.9c0.2-0.9,0.6-1.8,1.1-2.6S861.5,753.5,862.3,753z M866.3,756.2c-0.3-0.3-0.8-0.5-1.2-0.5
			c-0.5,0-0.9,0.2-1.2,0.5c-0.3,0.3-0.6,0.8-0.8,1.3c-0.2,0.5-0.3,1-0.4,1.5c-0.1,0.5-0.1,0.9-0.1,1.3s0,0.9,0.1,1.3
			c0.1,0.5,0.2,1,0.4,1.5c0.2,0.5,0.4,0.9,0.8,1.3c0.3,0.3,0.7,0.5,1.2,0.5c0.5,0,0.9-0.2,1.2-0.5c0.3-0.3,0.6-0.8,0.8-1.3
			c0.2-0.5,0.3-1,0.4-1.5c0.1-0.5,0.1-0.9,0.1-1.3s0-0.9-0.1-1.3c-0.1-0.5-0.2-1-0.4-1.5S866.7,756.6,866.3,756.2z"/>
	</g>
</g>
<g id="Layer_1" display="none">
	
		<image display="inline" overflow="visible" opacity="0.5" width="937" height="935" xlink:href="A9425E59C5845E9E.jpg"  transform="matrix(1.2605 0 0 1.2605 -79.3711 133.127)">
	</image>
</g>
</svg>
